<svg width="16" height="14" viewBox="0 0 16 14" fill="none" xmlns="http://www.w3.org/2000/svg">
<path d="M6.99984 8.66668C6.99984 9.21896 6.55212 9.66668 5.99984 9.66668C5.44755 9.66668 4.99984 9.21896 4.99984 8.66668C4.99984 8.11439 5.44755 7.66668 5.99984 7.66668C6.55212 7.66668 6.99984 8.11439 6.99984 8.66668Z" fill="#080808"/>
<path d="M9.99984 9.66668C10.5521 9.66668 10.9998 9.21896 10.9998 8.66668C10.9998 8.11439 10.5521 7.66668 9.99984 7.66668C9.44755 7.66668 8.99984 8.11439 8.99984 8.66668C8.99984 9.21896 9.44755 9.66668 9.99984 9.66668Z" fill="#080808"/>
<path fill-rule="evenodd" clip-rule="evenodd" d="M6.15168 0.333344C5.10218 0.333344 4.58886 0.417738 4.06594 0.6974C3.6213 0.935195 3.26836 1.28814 3.03056 1.73278C2.76473 2.22984 2.67533 2.71822 2.66714 3.66668H2.33317C1.4127 3.66668 0.666504 4.41287 0.666504 5.33334C0.666504 5.70153 0.964981 6.00001 1.33317 6.00001C1.70136 6.00001 1.99984 5.70153 1.99984 5.33334C1.99984 5.14925 2.14908 5.00001 2.33317 5.00001H2.6665V8.84816C2.6665 9.89767 2.7509 10.411 3.03056 10.9339C3.26836 11.3786 3.6213 11.7315 4.06594 11.9693C4.21318 12.048 4.35966 12.1113 4.51757 12.1616C4.50595 12.217 4.49984 12.2745 4.49984 12.3333V13C4.49984 13.4602 4.87293 13.8333 5.33317 13.8333C5.79341 13.8333 6.1665 13.4602 6.1665 13V12.3333H9.83317V13C9.83317 13.4602 10.2063 13.8333 10.6665 13.8333C11.1267 13.8333 11.4998 13.4602 11.4998 13V12.3333C11.4998 12.2745 11.4937 12.217 11.4821 12.1616C11.64 12.1113 11.7865 12.048 11.9337 11.9693C12.3784 11.7315 12.7313 11.3786 12.9691 10.9339C13.2488 10.411 13.3332 9.89767 13.3332 8.84816V5.00001H13.6665C13.8506 5.00001 13.9998 5.14925 13.9998 5.33334C13.9998 5.70153 14.2983 6.00001 14.6665 6.00001C15.0347 6.00001 15.3332 5.70153 15.3332 5.33334C15.3332 4.41287 14.587 3.66668 13.6665 3.66668H13.3325C13.3243 2.71822 13.2349 2.22984 12.9691 1.73278C12.7313 1.28814 12.3784 0.935195 11.9337 0.6974C11.4108 0.417738 10.8975 0.333344 9.84799 0.333344H6.15168ZM3.99984 5.00001H11.9998V3.81852C11.9998 2.83048 11.9145 2.58807 11.7934 2.36157C11.6798 2.14929 11.5172 1.98668 11.3049 1.87315C11.0784 1.75202 10.836 1.66668 9.84799 1.66668H6.15168C5.16365 1.66668 4.92123 1.75202 4.69473 1.87315C4.48245 1.98668 4.31984 2.14929 4.20631 2.36157C4.08518 2.58807 3.99984 2.83048 3.99984 3.81852V5.00001ZM3.99984 6.33334H11.9998V8.84816C11.9998 9.8362 11.9145 10.0786 11.7934 10.3051C11.6798 10.5174 11.5172 10.68 11.3049 10.7935C11.0784 10.9147 10.836 11 9.84799 11H6.15168C5.16364 11 4.92123 10.9147 4.69473 10.7935C4.48245 10.68 4.31984 10.5174 4.20631 10.3051C4.08518 10.0786 3.99984 9.8362 3.99984 8.84816V6.33334Z" fill="#080808"/>
</svg>
