<svg width="14" height="12" viewBox="0 0 14 12" fill="none" xmlns="http://www.w3.org/2000/svg">
<path d="M6.00016 6.33334C5.63197 6.33334 5.3335 6.63181 5.3335 7C5.3335 7.36819 5.63197 7.66667 6.00016 7.66667H8.00016C8.36835 7.66667 8.66683 7.36819 8.66683 7C8.66683 6.63181 8.36835 6.33334 8.00016 6.33334H6.00016Z" fill="#080808"/>
<path d="M4.53353 6.33334C4.53353 6.88562 4.08581 7.33334 3.53353 7.33334C2.98124 7.33334 2.53353 6.88562 2.53353 6.33334C2.53353 5.78105 2.98124 5.33334 3.53353 5.33334C4.08581 5.33334 4.53353 5.78105 4.53353 6.33334Z" fill="#080808"/>
<path d="M10.4668 7.33334C11.0191 7.33334 11.4668 6.88562 11.4668 6.33334C11.4668 5.78105 11.0191 5.33334 10.4668 5.33334C9.91451 5.33334 9.4668 5.78105 9.4668 6.33334C9.4668 6.88562 9.91451 7.33334 10.4668 7.33334Z" fill="#080808"/>
<path fill-rule="evenodd" clip-rule="evenodd" d="M2.48412 1.76895L1.74203 3.55199C0.887553 3.94292 0.333496 4.80393 0.333496 5.74536V6.35191C0.333496 7.08697 0.575281 7.7853 1.00016 8.35194V10.4667C1.00016 11.3135 1.68666 12 2.5335 12H3.46683C4.31367 12 5.00016 11.3135 5.00016 10.4667V10H9.00016V10.4667C9.00016 11.3135 9.68666 12 10.5335 12H11.4668C12.3137 12 13.0002 11.3135 13.0002 10.4667V8.35194C13.425 7.7853 13.6668 7.08697 13.6668 6.35191V5.74536C13.6668 4.80397 13.1128 3.943 12.2584 3.55204L11.5056 1.74317C11.2402 1.10557 10.7113 0.527335 9.95326 0.329929C8.13833 -0.142715 5.7824 -0.0777462 4.08851 0.335675C3.3111 0.525414 2.75867 1.1093 2.48412 1.76895ZM9.61724 1.62023C8.04387 1.21049 5.91401 1.2626 4.40465 1.63099C4.11912 1.70067 3.86097 1.93079 3.7151 2.28128L3.27724 3.33334H10.7232L10.2746 2.25549C10.1322 1.9133 9.88622 1.69028 9.61724 1.62023ZM2.74552 4.66667C2.57806 4.66667 2.4129 4.70566 2.26311 4.78055C1.89767 4.96327 1.66683 5.33678 1.66683 5.74536V6.35191C1.66683 7.62951 3.07124 8.66667 4.29634 8.66667H9.70398C10.9291 8.66667 12.3335 7.62951 12.3335 6.35191V5.74536C12.3335 5.33678 12.1027 4.96327 11.7372 4.78055C11.5874 4.70566 11.4223 4.66667 11.2548 4.66667H2.74552ZM11.6668 9.41202V10.4667C11.6668 10.5771 11.5773 10.6667 11.4668 10.6667H10.5335C10.423 10.6667 10.3335 10.5771 10.3335 10.4667V9.94002C10.6316 9.88269 10.9214 9.78473 11.1947 9.64809L11.6668 9.41202ZM2.80563 9.64809C3.0789 9.78473 3.36874 9.88269 3.66683 9.94002V10.4667C3.66683 10.5771 3.57729 10.6667 3.46683 10.6667H2.5335C2.42304 10.6667 2.3335 10.5771 2.3335 10.4667V9.41202L2.80563 9.64809Z" fill="#080808"/>
</svg>
