<svg width="124" height="143" viewBox="0 0 124 143" fill="none" xmlns="http://www.w3.org/2000/svg">
<path d="M109.877 131.067L109.008 129.845L109.877 131.067ZM83.7021 0.10306C82.8934 -0.0765358 82.0922 0.433455 81.9126 1.24218L78.9857 14.4211C78.8061 15.2298 79.3161 16.031 80.1249 16.2106C80.9336 16.3902 81.7348 15.8802 81.9144 15.0715L84.516 3.35692L96.2306 5.95855C97.0393 6.13816 97.8405 5.62815 98.0201 4.81943C98.1997 4.01071 97.6897 3.20951 96.881 3.02991L83.7021 0.10306ZM1.37682 118.067C0.627214 119.367 0.627819 119.367 0.62869 119.367C0.629336 119.368 0.630475 119.368 0.631766 119.369C0.634349 119.371 0.637996 119.373 0.642701 119.375C0.65211 119.381 0.665751 119.389 0.683574 119.399C0.71922 119.419 0.771598 119.449 0.840319 119.488C0.977761 119.566 1.18059 119.68 1.4457 119.826C1.97591 120.12 2.75536 120.545 3.75923 121.075C5.76677 122.136 8.67299 123.617 12.2793 125.308C19.4883 128.687 29.5127 132.911 40.7598 136.274C63.1244 142.963 90.8803 146.421 110.747 132.29L109.008 129.845C90.3743 143.1 63.8801 140.058 41.6194 133.4C30.5539 130.091 20.6719 125.929 13.5527 122.592C9.99485 120.924 7.13149 119.464 5.16048 118.423C4.17508 117.902 3.41301 117.487 2.89902 117.202C2.64203 117.06 2.44709 116.95 2.31729 116.877C2.25239 116.84 2.20377 116.812 2.17183 116.794C2.15586 116.785 2.14406 116.778 2.13648 116.774C2.13269 116.772 2.12995 116.77 2.12827 116.769C2.12743 116.769 2.12697 116.768 2.12655 116.768C2.12636 116.768 2.12643 116.768 1.37682 118.067ZM110.747 132.29C120.976 125.013 124.168 112.858 123.477 99.2035C122.785 85.5387 118.201 70.0294 112.46 55.4963C106.71 40.9418 99.7563 27.2619 94.2464 17.2285C91.4901 12.2095 89.0921 8.09758 87.382 5.23856C86.5268 3.80896 85.8435 2.69233 85.3732 1.93187C85.1381 1.55163 84.9562 1.26043 84.8326 1.06364C84.7709 0.965254 84.7237 0.890459 84.6917 0.839948C84.6758 0.814686 84.6636 0.795498 84.6554 0.782469C84.6512 0.775954 84.6481 0.770972 84.6459 0.767542C84.6448 0.765828 84.6439 0.764413 84.6433 0.763562C84.6427 0.762536 84.6423 0.761914 83.3769 1.56739C82.1115 2.37286 82.1116 2.37302 82.112 2.37355C82.1124 2.37425 82.113 2.37517 82.1139 2.37656C82.1156 2.37935 82.1184 2.38367 82.1221 2.38954C82.1295 2.40127 82.1409 2.41914 82.156 2.44306C82.1863 2.49092 82.2317 2.56302 82.2918 2.65866C82.4119 2.84996 82.5902 3.13548 82.8218 3.50983C83.2848 4.25856 83.9604 5.36251 84.8074 6.77856C86.5016 9.61086 88.8809 13.6905 91.6168 18.6726C97.0913 28.6413 103.982 42.2014 109.669 56.5986C115.366 71.0172 119.813 86.1712 120.481 99.3552C121.149 112.549 118.028 123.428 109.008 129.845L110.747 132.29Z" fill="white"/>
</svg>
