<svg width="124" height="143" viewBox="0 0 124 143" fill="none" xmlns="http://www.w3.org/2000/svg">
    <path d="M14.4441 131.067L15.3136 129.845L14.4441 131.067ZM40.6192 0.10306C41.4279 -0.0765358 42.2291 0.433455 42.4087 1.24218L45.3355 14.4211C45.5152 15.2298 45.0051 16.031 44.1964 16.2106C43.3877 16.3902 42.5865 15.8802 42.4069 15.0715L39.8053 3.35692L28.0907 5.95855C27.282 6.13816 26.4808 5.62815 26.3011 4.81943C26.1215 4.01071 26.6315 3.20951 27.4403 3.02991L40.6192 0.10306ZM122.944 118.067C123.694 119.367 123.693 119.367 123.693 119.367C123.692 119.368 123.691 119.368 123.69 119.369C123.687 119.371 123.683 119.373 123.679 119.375C123.669 119.381 123.656 119.389 123.638 119.399C123.602 119.419 123.55 119.449 123.481 119.488C123.344 119.566 123.141 119.68 122.876 119.826C122.345 120.12 121.566 120.545 120.562 121.075C118.555 122.136 115.648 123.617 112.042 125.308C104.833 128.687 94.8086 132.911 83.5615 136.274C61.1969 142.963 33.441 146.421 13.5746 132.29L15.3136 129.845C33.947 143.1 60.4412 140.058 82.7019 133.4C93.7674 130.091 103.649 125.929 110.769 122.592C114.326 120.924 117.19 119.464 119.161 118.423C120.146 117.902 120.908 117.487 121.422 117.202C121.679 117.06 121.874 116.95 122.004 116.877C122.069 116.84 122.118 116.812 122.149 116.794C122.165 116.785 122.177 116.778 122.185 116.774C122.189 116.772 122.191 116.77 122.193 116.769C122.194 116.769 122.194 116.768 122.195 116.768C122.195 116.768 122.195 116.768 122.944 118.067ZM13.5746 132.29C3.3454 125.013 0.153196 112.858 0.844592 99.2035C1.53649 85.5387 6.12035 70.0294 11.8617 55.4963C17.6116 40.9418 24.565 27.2619 30.0749 17.2285C32.8311 12.2095 35.2292 8.09758 36.9393 5.23856C37.7944 3.80896 38.4778 2.69233 38.9481 1.93187C39.1832 1.55163 39.3651 1.26043 39.4887 1.06364C39.5504 0.965254 39.5976 0.890459 39.6295 0.839948C39.6455 0.814686 39.6577 0.795498 39.6659 0.782469C39.6701 0.775954 39.6732 0.770972 39.6754 0.767542C39.6765 0.765828 39.6774 0.764413 39.6779 0.763562C39.6786 0.762536 39.679 0.761914 40.9444 1.56739C42.2098 2.37286 42.2097 2.37302 42.2093 2.37355C42.2089 2.37425 42.2083 2.37517 42.2074 2.37656C42.2057 2.37935 42.2029 2.38367 42.1992 2.38954C42.1917 2.40127 42.1804 2.41914 42.1653 2.44306C42.135 2.49092 42.0896 2.56302 42.0295 2.65866C41.9094 2.84996 41.7311 3.13548 41.4995 3.50983C41.0365 4.25856 40.3609 5.36251 39.5139 6.77856C37.8197 9.61086 35.4404 13.6905 32.7045 18.6726C27.23 28.6413 20.3396 42.2014 14.6519 56.5986C8.95576 71.0172 4.50831 86.1712 3.84075 99.3552C3.1727 112.549 6.2929 123.428 15.3136 129.845L13.5746 132.29Z" fill="white"/>
</svg>
