<svg width="103" height="206" viewBox="0 0 103 206" fill="none" xmlns="http://www.w3.org/2000/svg">
<path d="M93 154L94.3407 154.673L93 154ZM28.8364 1.50898C28.0129 1.59894 27.4182 2.33949 27.5082 3.16301L28.9744 16.5832C29.0644 17.4067 29.8049 18.0013 30.6284 17.9114C31.452 17.8214 32.0466 17.0809 31.9566 16.2573L30.6534 4.32832L42.5824 3.02504C43.4059 2.93506 44.0006 2.19452 43.9106 1.371C43.8206 0.547466 43.0801 -0.0471948 42.2566 0.0427726L28.8364 1.50898ZM1.49948 199C0.866665 200.36 0.867735 200.36 0.869019 200.361C0.869732 200.361 0.871231 200.362 0.872655 200.363C0.875506 200.364 0.87921 200.366 0.883763 200.368C0.892873 200.372 0.905374 200.378 0.921233 200.385C0.952953 200.399 0.998112 200.419 1.05642 200.445C1.17302 200.496 1.34224 200.569 1.56175 200.66C2.00071 200.842 2.64106 201.096 3.46415 201.39C5.10984 201.98 7.48896 202.736 10.4518 203.415C16.3735 204.772 24.6543 205.828 34.0827 204.613C53.0388 202.169 76.3236 190.582 94.3407 154.673L91.6593 153.327C74.0528 188.418 51.5874 199.331 33.6991 201.637C24.7053 202.797 16.7905 201.79 11.122 200.491C8.28972 199.842 6.02513 199.121 4.4759 198.566C3.70152 198.289 3.1066 198.053 2.70966 197.889C2.51121 197.806 2.36232 197.742 2.2653 197.699C2.2168 197.678 2.18127 197.662 2.159 197.652C2.14787 197.647 2.14005 197.643 2.13559 197.641C2.13336 197.64 2.13196 197.64 2.13142 197.639C2.13114 197.639 2.13136 197.639 2.13122 197.639C2.13165 197.64 2.1323 197.64 1.49948 199ZM94.3407 154.673C112.551 118.379 96.1004 79.9743 75.5825 51.0079C65.2885 36.4753 53.8834 24.188 45.059 15.5382C40.6448 11.2114 36.8716 7.79006 34.1991 5.44813C32.8627 4.27706 31.8012 3.37559 31.072 2.76546C30.7074 2.4604 30.4259 2.22814 30.2346 2.07142C30.139 1.99306 30.0659 1.93357 30.0162 1.89331C29.9914 1.87319 29.9724 1.85785 29.9594 1.84737C29.9529 1.84214 29.9479 1.83811 29.9444 1.83529C29.9427 1.83389 29.9412 1.8327 29.9403 1.832C29.9392 1.8311 29.9385 1.83052 28.9993 3.0001C28.0601 4.16968 28.0602 4.16971 28.0606 4.17004C28.0612 4.17056 28.062 4.17118 28.0633 4.17222C28.0658 4.17428 28.0699 4.17756 28.0755 4.18204C28.0866 4.19101 28.1036 4.20481 28.1266 4.2234C28.1724 4.26058 28.2417 4.31692 28.3334 4.3921C28.5169 4.54243 28.7905 4.76807 29.1469 5.06626C29.8596 5.66268 30.9037 6.5493 32.2219 7.7044C34.8584 10.0148 38.59 13.3981 42.959 17.6806C51.7009 26.2495 62.9753 38.3997 73.1344 52.742C93.5228 81.5256 109.073 118.621 91.6593 153.327L94.3407 154.673Z" fill="white"/>
</svg>
