<svg width="320" height="241" viewBox="0 0 320 241" fill="none" xmlns="http://www.w3.org/2000/svg">
<g filter="url(#filter0_b_84_2742)">
<rect x="0.844971" y="1.36401" width="311" height="239" rx="16" transform="rotate(-0.0804237 0.844971 1.36401)" fill="#CC2222" fill-opacity="0.55"/>
</g>
<path d="M61.3312 130.343L34.7827 131.124L34.1317 108.99L37.2664 108.897L37.8308 128.089L46.4031 127.837L45.8386 108.645L48.9733 108.553L49.5377 127.745L58.11 127.493L57.5456 108.301L60.6802 108.209L61.3312 130.343ZM63.7445 124.798C63.6485 121.535 65.9459 119.099 69.3684 118.998C71.0957 118.947 72.361 119.518 72.9528 120.045L72.9104 118.606C72.8455 116.399 71.7853 115.181 69.7701 115.241C67.691 115.302 66.9939 116.635 67.0033 118.043L64.1566 118.127C64.1001 115.119 65.8913 112.89 69.7297 112.777C74.0478 112.65 75.8165 115.095 75.9275 118.869L76.252 129.904L73.5652 129.983L73.5257 128.64C72.7533 129.591 71.5256 130.299 69.7024 130.353C66.4398 130.449 63.848 128.316 63.7445 124.798ZM66.6872 124.711C66.7409 126.535 68.0937 127.903 69.9809 127.848C71.8361 127.793 73.2021 126.344 73.1484 124.521C73.0939 122.666 71.647 121.364 69.7598 121.42C67.8406 121.476 66.6336 122.888 66.6872 124.711ZM90.745 129.478L85.662 123.193L80.9573 129.766L77.5667 129.866L83.8972 120.876L77.4472 112.742L81.0617 112.635L85.6479 118.359L89.8899 112.376L93.3444 112.274L87.3818 120.709L94.2315 129.376L90.745 129.478ZM103.716 129.097L98.2835 116.355L98.6626 129.245L95.7838 129.33L95.2805 112.217L99.7266 112.087L105.068 124.991L109.674 111.794L113.992 111.667L114.496 128.78L111.489 128.868L111.107 115.882L106.435 129.017L103.716 129.097ZM116.69 123.241C116.594 119.978 118.892 117.541 122.314 117.441C124.042 117.39 125.307 117.961 125.899 118.488L125.856 117.048C125.791 114.841 124.731 113.624 122.716 113.683C120.637 113.745 119.94 115.078 119.949 116.486L117.102 116.57C117.046 113.562 118.837 111.332 122.676 111.219C126.994 111.092 128.762 113.538 128.873 117.312L129.198 128.347L126.511 128.426L126.472 127.083C125.699 128.034 124.471 128.742 122.648 128.796C119.386 128.892 116.794 126.759 116.69 123.241ZM119.633 123.154C119.687 124.977 121.04 126.346 122.927 126.291C124.782 126.236 126.148 124.787 126.094 122.964C126.04 121.109 124.593 119.807 122.706 119.862C120.786 119.919 119.579 121.331 119.633 123.154ZM130.901 111.17L142.192 110.838L142.274 113.62L138.148 113.742L138.569 128.072L135.531 128.161L135.109 113.831L130.983 113.952L130.901 111.17ZM144.981 127.883L144.478 110.77L147.517 110.681L147.697 116.822L149.648 116.765C153.679 116.646 156.263 118.523 156.366 122.01C156.47 125.56 154.033 127.617 150.003 127.735L144.981 127.883ZM161.111 110.281L161.614 127.394L158.575 127.483L158.072 110.37L161.111 110.281ZM149.76 119.483L147.777 119.541L147.94 125.075L149.923 125.016C152.162 124.951 153.252 123.894 153.198 122.071C153.149 120.408 151.967 119.418 149.76 119.483ZM172.194 109.955L172.392 116.704L178.405 116.527L178.207 109.778L181.246 109.689L181.749 126.802L178.71 126.891L178.487 119.31L172.474 119.487L172.697 127.068L169.658 127.157L169.155 110.045L172.194 109.955ZM183.974 121.262C183.878 117.999 186.175 115.563 189.598 115.462C191.325 115.411 192.59 115.982 193.182 116.509L193.14 115.07C193.075 112.863 192.015 111.645 189.999 111.704C187.92 111.766 187.223 113.099 187.233 114.507L184.386 114.591C184.329 111.583 186.121 109.353 189.959 109.241C194.277 109.114 196.046 111.559 196.157 115.333L196.481 126.368L193.794 126.447L193.755 125.104C192.983 126.055 191.755 126.763 189.932 126.817C186.669 126.913 184.077 124.78 183.974 121.262ZM186.916 121.175C186.97 122.998 188.323 124.367 190.21 124.312C192.065 124.257 193.431 122.808 193.378 120.985C193.323 119.13 191.876 117.828 189.989 117.883C188.07 117.94 186.863 119.352 186.916 121.175ZM34.1966 146.028L45.4877 145.696L45.5696 148.478L41.4434 148.6L41.8648 162.93L38.8261 163.019L38.4047 148.689L34.2785 148.81L34.1966 146.028ZM51.2534 160.541L51.4801 168.249L48.4414 168.339L47.7735 145.628L50.6842 145.543L50.7567 148.006C51.7407 146.632 53.6825 145.166 56.6892 145.078C61.775 144.928 65.3988 148.407 65.5531 153.653C65.6999 158.643 62.4232 162.613 57.0815 162.77C54.1067 162.858 52.0813 161.477 51.2534 160.541ZM50.9364 154.115C51.0417 157.698 53.483 160.155 56.9055 160.054C60.36 159.953 62.5887 157.358 62.4834 153.775C62.3789 150.225 59.9677 147.703 56.5452 147.803C53.0907 147.905 50.8319 150.565 50.9364 154.115ZM67.2467 156.709C67.1507 153.446 69.4481 151.009 72.8706 150.909C74.5978 150.858 75.8632 151.429 76.4549 151.956L76.4126 150.517C76.3477 148.309 75.2874 147.092 73.2723 147.151C71.1932 147.213 70.4961 148.546 70.5055 149.954L67.6587 150.038C67.6023 147.03 69.3935 144.8 73.2318 144.688C77.55 144.561 79.3186 147.006 79.4296 150.78L79.7542 161.815L77.0673 161.894L77.0278 160.551C76.2555 161.502 75.0278 162.21 73.2045 162.264C69.942 162.36 67.3501 160.227 67.2467 156.709ZM70.1894 156.622C70.243 158.445 71.5958 159.814 73.483 159.759C75.3382 159.704 76.7042 158.255 76.6506 156.432C76.596 154.577 75.1491 153.275 73.2619 153.33C71.3428 153.387 70.1358 154.799 70.1894 156.622ZM82.8244 161.725L82.3211 144.612L87.7907 144.451C91.4371 144.344 93.6272 145.88 93.7128 148.791C93.7646 150.55 92.7467 151.861 91.4221 152.54C93.1013 153.035 94.4513 154.308 94.5153 156.483C94.6056 159.554 92.2923 161.446 88.5179 161.557L82.8244 161.725ZM87.5433 146.924L85.4322 146.986L85.5705 151.688L87.6816 151.626C89.6007 151.569 90.5989 150.676 90.5537 149.14C90.5105 147.669 89.4944 146.866 87.5433 146.924ZM88.0381 153.952L85.6391 154.023L85.7906 159.173L88.1896 159.102C90.3326 159.039 91.3901 157.983 91.3449 156.448C91.2988 154.881 90.2132 153.888 88.0381 153.952ZM112.74 153.194L99.2096 153.592C99.5285 156.816 101.666 158.738 104.897 158.643C107.615 158.563 109.11 157.142 110.139 155.095L112.509 156.242C111.467 158.898 109.007 161.243 104.977 161.361C99.8267 161.513 96.2066 158.162 96.0495 152.82C95.8971 147.638 99.2425 143.826 104.136 143.683C109.158 143.535 112.548 146.669 112.763 151.816C112.773 152.136 112.789 152.68 112.74 153.194ZM104.182 146.306C101.399 146.388 99.5323 148.236 99.2331 151.126L109.565 150.822C109.29 148.013 107.156 146.219 104.182 146.306Z" fill="#323232"/>
<path d="M261.255 45.8527L261.243 37.5197C261.18 37.5608 260.884 37.6934 260.355 37.9174C259.831 38.1369 259.535 38.2558 259.467 38.2741L259.465 36.9069C259.574 36.8566 259.921 36.6853 260.503 36.3928C261.086 36.0957 261.407 35.9267 261.467 35.8856L262.97 35.8835L262.984 45.8502L261.255 45.8527ZM264.454 45.855L264.411 44.3785L267.571 40.792C267.962 40.3722 268.247 39.9867 268.424 39.6356C268.606 39.2798 268.696 38.906 268.696 38.5141C268.695 38.0812 268.554 37.7373 268.271 37.4825C267.988 37.2231 267.616 37.0937 267.156 37.0944C266.732 37.095 266.313 37.1753 265.898 37.3354C265.488 37.4909 265.151 37.6874 264.887 37.9247L264.373 36.5719C265.056 35.9694 266.017 35.6673 267.256 35.6655C268.241 35.6641 269.032 35.9114 269.629 36.4073C270.232 36.8987 270.533 37.5955 270.535 38.4978C270.536 39.1359 270.366 39.7445 270.025 40.3238C269.688 40.903 269.226 41.4984 268.639 42.1099L266.387 44.5056L270.427 44.5L270.306 45.8468L264.454 45.855ZM271.518 47.7797C271.776 46.5169 271.989 45.3431 272.156 44.2583L273.824 44.2559L273.804 44.5909C273.509 45.6213 273.151 46.6836 272.728 47.778L271.518 47.7797ZM275.132 45.84L275.089 44.3635L278.249 40.7771C278.64 40.3572 278.924 39.9717 279.102 39.6206C279.284 39.2649 279.374 38.891 279.374 38.4991C279.373 38.0662 279.231 37.7223 278.948 37.4675C278.665 37.2081 278.294 37.0787 277.834 37.0794C277.41 37.08 276.991 37.1603 276.576 37.3204C276.166 37.4759 275.829 37.6724 275.565 37.9097L275.051 36.5569C275.733 35.9544 276.694 35.6523 277.934 35.6505C278.918 35.6492 279.709 35.8964 280.307 36.3923C280.909 36.8837 281.211 37.5805 281.212 38.4829C281.213 39.1209 281.043 39.7295 280.702 40.3088C280.366 40.888 279.904 41.4834 279.317 42.0949L277.065 44.4906L281.105 44.485L280.983 45.8318L275.132 45.84ZM285.072 45.9696C284.484 45.9705 283.93 45.896 283.41 45.7464C282.895 45.5922 282.487 45.3854 282.186 45.126L282.676 43.8333C282.927 44.0426 283.274 44.2153 283.716 44.3514C284.158 44.483 284.612 44.5484 285.076 44.5477C285.601 44.547 286.022 44.4051 286.34 44.1221C286.664 43.8391 286.825 43.4698 286.824 43.014C286.824 42.7315 286.778 42.4877 286.687 42.2828C286.6 42.0778 286.483 41.9139 286.337 41.7911C286.191 41.6682 285.995 41.5705 285.749 41.498C285.507 41.4208 285.259 41.3688 285.004 41.3418C284.748 41.3148 284.441 41.2993 284.081 41.2952C284.067 41.2953 284.001 41.2953 283.882 41.2955C283.764 41.2911 283.698 41.2889 283.684 41.289L283.682 39.9081L284.065 39.9076C284.462 39.907 284.801 39.886 285.083 39.8446C285.371 39.8032 285.635 39.7322 285.876 39.6316C286.122 39.531 286.306 39.3826 286.429 39.1865C286.557 38.9903 286.62 38.7487 286.62 38.4616C286.619 38.0742 286.473 37.744 286.181 37.471C285.889 37.198 285.478 37.0618 284.95 37.0626C284.093 37.0638 283.33 37.279 282.661 37.7084L282.167 36.4102C282.995 35.8986 283.979 35.6421 285.119 35.6405C286.071 35.6391 286.848 35.8887 287.451 36.3891C288.058 36.8896 288.362 37.5317 288.363 38.3156C288.363 38.8625 288.223 39.3298 287.941 39.7175C287.663 40.1008 287.258 40.3816 286.725 40.5601C287.336 40.6777 287.808 40.971 288.141 41.4399C288.479 41.9089 288.649 42.4623 288.65 43.1003C288.65 43.7065 288.489 44.2308 288.166 44.6733C287.843 45.1112 287.416 45.4377 286.883 45.6526C286.35 45.863 285.746 45.9687 285.072 45.9696ZM291.899 40.1016C292.296 40.1011 292.594 39.9526 292.794 39.656C292.999 39.3595 293.101 38.9766 293.1 38.5072C293.1 38.0287 292.996 37.6414 292.791 37.3455C292.59 37.0496 292.294 36.9019 291.902 36.9024C291.51 36.903 291.214 37.0538 291.014 37.3548C290.814 37.6559 290.714 38.0457 290.714 38.5242C290.715 39.0027 290.814 39.3854 291.01 39.6722C291.211 39.9591 291.507 40.1022 291.899 40.1016ZM291.88 41.1886C291.137 41.1896 290.552 40.9398 290.122 40.4391C289.698 39.9384 289.485 39.3007 289.484 38.5259C289.483 37.7512 289.701 37.1083 290.138 36.5973C290.579 36.0862 291.169 35.8302 291.907 35.8292C292.677 35.8281 293.284 36.0779 293.726 36.5786C294.169 37.0792 294.391 37.7192 294.392 38.4985C294.393 39.2687 294.164 39.9093 293.704 40.4204C293.245 40.9315 292.637 41.1875 291.88 41.1886ZM291.224 46.0362L297.369 35.8967L298.873 35.9014L292.68 46.0341L291.224 46.0362ZM298.571 44.8364C298.981 44.8358 299.289 44.6873 299.493 44.3908C299.702 44.0897 299.807 43.7022 299.806 43.2282C299.805 42.7543 299.693 42.3739 299.469 42.0871C299.25 41.7958 298.922 41.6504 298.484 41.651C298.047 41.6516 297.742 41.7956 297.569 42.0829C297.396 42.3703 297.31 42.7646 297.311 43.2659C297.312 43.7399 297.417 44.1203 297.627 44.4071C297.842 44.6939 298.156 44.837 298.571 44.8364ZM298.552 45.9234C297.768 45.9245 297.148 45.6747 296.692 45.174C296.24 44.6688 296.013 44.0334 296.012 43.2677C296.01 41.4722 296.836 40.5732 298.49 40.5709C299.306 40.5698 299.93 40.8173 300.364 41.3134C300.802 41.805 301.022 42.445 301.023 43.2334C301.024 44.0036 300.802 44.6442 300.356 45.1552C299.914 45.6662 299.313 45.9223 298.552 45.9234Z" fill="#47CB3B"/>
<path d="M69.996 49.1636C65.2029 44.8888 58.8896 42.7255 52.4821 43.1624C40.0719 43.7966 30.5254 54.3711 31.1596 66.7814C31.7937 79.1917 42.3683 88.7381 54.7786 88.1039C57.4219 88.0073 59.6657 86.1359 60.2353 83.5528C60.5822 81.7148 60.0003 79.8238 58.68 78.4988C58.2455 78.0547 58.2533 77.3424 58.6974 76.9079C58.8897 76.7198 59.1429 76.6069 59.4113 76.5894L63.1185 76.3907C70.3582 76.0366 76.0977 70.1557 76.2758 62.9096C76.1637 57.6586 73.892 52.6859 69.996 49.1636ZM62.9675 71.8924L59.2603 72.0911C56.1697 72.2392 53.7843 74.8647 53.9325 77.9554C53.999 79.3428 54.5785 80.6561 55.5587 81.6404C55.8606 81.914 55.9869 82.3318 55.8873 82.7269C55.8003 83.2047 55.2992 83.5245 54.6051 83.6068C44.6722 84.0116 36.2918 76.2877 35.8869 66.3548C35.856 65.5964 35.8731 64.8368 35.9381 64.0805C36.791 55.2419 43.8896 48.3044 52.7455 47.6548L52.9252 47.6451C58.0546 47.3028 63.1047 49.0472 66.9292 52.4825C69.9146 55.1658 71.6659 58.9581 71.7726 62.9707C71.546 67.7566 67.75 71.6028 62.9675 71.8924Z" fill="#292A2B"/>
<path d="M55.4816 50.7487C56.8683 51.9943 56.9827 54.1282 55.7371 55.5149C54.4915 56.9015 52.3577 57.0159 50.971 55.7704C49.5843 54.5248 49.4699 52.3909 50.7155 51.0042C51.9611 49.6175 54.0949 49.5032 55.4816 50.7487Z" fill="#292A2B"/>
<path d="M60.6127 54.444C59.0509 55.4614 58.6096 57.5523 59.627 59.1141C60.6444 60.6759 62.7353 61.1172 64.2971 60.0998C65.8577 59.0831 66.2997 56.9945 65.2848 55.4328C64.2691 53.8699 62.1788 53.4263 60.6158 54.4419C60.6148 54.4426 60.6137 54.4433 60.6127 54.444Z" fill="#292A2B"/>
<path d="M46.0085 55.225C44.346 54.3822 42.315 55.0467 41.4722 56.7093C40.6295 58.3718 41.294 60.4028 42.9566 61.2456C44.6178 62.0877 46.6472 61.4249 47.4912 59.7646C48.3358 58.103 47.6735 56.0713 46.0119 55.2267C46.0108 55.2261 46.0097 55.2255 46.0085 55.225Z" fill="#292A2B"/>
<path d="M40.6784 64.6596C39.1917 65.7839 38.8978 67.9005 40.0221 69.3873C41.1463 70.874 43.263 71.1678 44.7497 70.0436C46.2364 68.9193 46.5303 66.8027 45.406 65.316C45.404 65.3132 45.4019 65.3105 45.3999 65.3078C44.2886 63.8269 42.1871 63.5272 40.7062 64.6385C40.6969 64.6455 40.6876 64.6526 40.6784 64.6596Z" fill="#292A2B"/>
<path fill-rule="evenodd" clip-rule="evenodd" d="M265.846 58.2939C265.22 57.8333 264.323 57.9496 263.841 58.5864L258.965 65.024L254.174 62.7855L254.007 62.7196C253.387 62.5185 252.697 62.7599 252.341 63.3247L246.8 72.1355L246.718 72.2831C246.407 72.9352 246.627 73.7317 247.253 74.1258L247.401 74.2072C248.053 74.5188 248.849 74.2991 249.244 73.6725L254.106 65.94L258.801 68.1334L258.971 68.2004C259.548 68.3855 260.189 68.1904 260.562 67.6971L265.167 61.6147L269.923 66.1235L270.063 66.24C270.64 66.6651 271.458 66.6033 271.964 66.0693C272.513 65.4909 272.488 64.5773 271.91 64.0288L265.985 58.4104L265.846 58.2939ZM271.468 79.4911C272.183 79.3887 272.724 78.764 272.704 78.024C272.683 77.2271 272.02 76.5983 271.223 76.6194L248.137 77.2327L247.969 77.2469C247.253 77.3493 246.712 77.974 246.732 78.7139C246.753 79.5108 247.416 80.1397 248.213 80.1185L271.3 79.5052L271.468 79.4911Z" fill="#171717"/>
<defs>
<filter id="filter0_b_84_2742" x="-19.1326" y="-19.05" width="351.29" height="279.391" filterUnits="userSpaceOnUse" color-interpolation-filters="sRGB">
<feFlood flood-opacity="0" result="BackgroundImageFix"/>
<feGaussianBlur in="BackgroundImageFix" stdDeviation="10"/>
<feComposite in2="SourceAlpha" operator="in" result="effect1_backgroundBlur_84_2742"/>
<feBlend mode="normal" in="SourceGraphic" in2="effect1_backgroundBlur_84_2742" result="shape"/>
</filter>
</defs>
</svg>


