<svg width="325" height="258" viewBox="0 0 325 258" fill="none" xmlns="http://www.w3.org/2000/svg">
<g filter="url(#filter0_b_420_4747)">
<rect y="18.6804" width="311" height="239" rx="16" transform="rotate(-3.44359 0 18.6804)" fill="#DCD9D9" fill-opacity="0.4"/>
</g>
<path d="M36.7527 133.872C36.3323 127.037 39.7151 122.094 46.2638 121.708C51.6625 121.391 55.2652 124.192 56.2529 128.782L51.9959 129.417C51.3856 126.792 49.235 125.188 46.4878 125.349C42.4628 125.586 40.9715 129.489 41.225 133.609C41.506 138.176 43.9164 141.4 47.7498 141.175C50.7846 140.996 52.4438 138.783 52.6999 136.171L56.9982 136.207C56.6938 141.161 53.628 144.483 47.9738 144.816C41.2335 145.212 37.1811 140.835 36.7527 133.872ZM76.6748 142.742L71.4039 143.052L65.8442 136.583L64.3109 136.674L64.7274 143.445L60.4468 143.697L59.4173 126.96L63.6979 126.708L64.1066 133.352L65.6719 133.26L70.1188 126.331L75.166 126.033L68.7872 134.391L76.6748 142.742ZM77.2441 138.124C77.0378 134.771 79.6268 133.079 83.9458 132.409L88.2947 131.704L88.2436 130.873C88.1375 129.149 87.0725 127.993 84.8364 128.125C83.0156 128.232 81.6591 129.113 81.6374 130.845L77.7402 131.075C77.6125 126.915 80.8803 125.312 84.6498 125.091C89.3776 124.812 92.2943 126.884 92.5792 131.516L93.2099 141.768L89.2168 142.003L89.0301 138.969C88.0737 141.141 86.0778 142.573 83.1389 142.746C79.3695 142.968 77.417 140.935 77.2441 138.124ZM81.479 137.651C81.5576 138.928 82.477 139.804 84.3298 139.695C87.0132 139.537 88.6503 137.485 88.501 135.057L88.4558 134.323L84.646 134.932C82.5814 135.246 81.3847 136.117 81.479 137.651ZM96.9774 141.547L95.9478 124.81L100.228 124.558L100.625 131.01L107.685 130.594L107.288 124.143L111.569 123.891L112.598 140.627L108.318 140.879L107.901 134.108L100.841 134.523L101.258 141.295L96.9774 141.547ZM130.921 136.022L133.061 135.896L133.55 143.849L129.525 144.086L129.252 139.647L118.966 140.252L119.239 144.692L115.182 144.931L114.693 136.978L116.034 136.899C116.913 134.507 116.855 130.439 116.85 123.58L130.107 122.799L130.921 136.022ZM126.64 136.274L126.043 126.565L120.708 126.879C120.651 131.69 120.685 134.317 120.091 136.66L126.64 136.274ZM144.755 121.937L151.112 121.563L152.142 138.299L148.021 138.542L147.192 125.063L142.111 138.89L135.754 139.264L134.724 122.528L138.845 122.285L139.674 135.764L144.755 121.937ZM156.031 138.07L155.002 121.334L159.282 121.082L159.679 127.534L166.739 127.118L166.342 120.667L170.623 120.415L171.652 137.151L167.372 137.403L166.955 130.632L159.895 131.047L160.312 137.818L156.031 138.07ZM174.544 132.397C174.338 129.043 176.927 127.352 181.246 126.681L185.595 125.976L185.544 125.146C185.438 123.421 184.373 122.266 182.137 122.397C180.316 122.505 178.959 123.386 178.938 125.118L175.041 125.347C174.913 121.188 178.181 119.585 181.95 119.363C186.678 119.085 189.595 121.157 189.88 125.788L190.51 136.041L186.517 136.276L186.33 133.242C185.374 135.414 183.378 136.845 180.439 137.018C176.67 137.24 174.717 135.207 174.544 132.397ZM178.779 131.923C178.858 133.201 179.777 134.076 181.63 133.967C184.314 133.809 185.951 131.757 185.801 129.33L185.756 128.595L181.946 129.204C179.882 129.518 178.685 130.39 178.779 131.923ZM203.902 126.534C206.699 126.657 209.095 127.574 209.262 130.289C209.4 132.525 208.078 135.007 202.903 135.311L194.278 135.819L193.248 119.083L201.426 118.601C205.994 118.332 208.055 120.038 208.202 122.434C208.316 124.286 207.226 125.857 203.902 126.534ZM197.723 121.993L197.949 125.666L201.559 125.453C203.476 125.341 204.032 124.474 203.969 123.452C203.906 122.43 203.218 121.669 201.141 121.792L197.723 121.993ZM202.357 132.17C204.401 132.05 205.049 131.114 204.98 129.996C204.906 128.782 204.028 128.065 201.952 128.187L198.118 128.413L198.364 132.405L202.357 132.17ZM211.245 126.422C210.895 120.737 213.997 117.477 219.044 117.18C223.165 116.937 226.557 118.917 227.284 122.913L223.217 123.505C222.638 121.392 221.102 120.392 219.249 120.501C216.757 120.648 215.284 122.754 215.494 126.172C215.704 129.589 217.425 131.508 220.013 131.355C222.089 131.233 223.388 129.938 223.672 127.774L227.808 127.787C227.586 131.999 224.498 134.425 220.217 134.677C215.074 134.98 211.595 132.107 211.245 126.422ZM247.317 132.697L242.046 133.007L236.486 126.539L234.953 126.629L235.37 133.4L231.089 133.652L230.059 116.916L234.34 116.664L234.749 123.307L236.314 123.215L240.761 116.286L245.808 115.989L239.429 124.346L247.317 132.697ZM247.886 128.08C247.68 124.726 250.269 123.035 254.588 122.364L258.937 121.659L258.886 120.829C258.78 119.104 257.715 117.949 255.479 118.08C253.658 118.187 252.301 119.069 252.28 120.801L248.382 121.03C248.255 116.871 251.522 115.268 255.292 115.046C260.02 114.768 262.936 116.84 263.221 121.471L263.852 131.724L259.859 131.959L259.672 128.925C258.716 131.097 256.72 132.528 253.781 132.701C250.012 132.923 248.059 130.89 247.886 128.08ZM252.121 127.606C252.2 128.884 253.119 129.759 254.972 129.65C257.655 129.492 259.292 127.44 259.143 125.013L259.098 124.278L255.288 124.887C253.224 125.201 252.027 126.073 252.121 127.606ZM272.851 114.397L281.029 113.916L282.059 130.652L277.778 130.904L277.387 124.548L274.991 124.689L271.485 131.274L266.438 131.572L270.854 124.676C268.072 124.263 266.53 122.655 266.367 120.004C266.157 116.586 268.411 114.658 272.851 114.397ZM277.22 121.833L276.949 117.426L273.563 117.625C271.614 117.74 270.577 118.602 270.663 120.007C270.75 121.413 271.885 122.147 273.834 122.033L277.22 121.833ZM56.272 175.998L51.1928 176.297L47.0156 170.933L43.5899 176.744L38.6705 177.034L44.411 168.201L37.9923 160.277L43.1035 159.976L46.7838 165.081L49.8757 159.577L54.7633 159.29L49.4184 167.778L56.272 175.998ZM56.0757 167.611C55.7417 162.181 58.8915 158.662 64.1304 158.354C69.3694 158.045 72.9279 161.17 73.2619 166.599C73.5959 172.029 70.4461 175.548 65.2071 175.857C59.9682 176.165 56.4097 173.041 56.0757 167.611ZM60.3243 167.361C60.5208 170.555 62.3194 172.693 65.0028 172.535C67.7181 172.375 69.2417 170.041 69.0452 166.847C68.8487 163.654 67.0501 161.516 64.3348 161.675C61.6514 161.833 60.1278 164.167 60.3243 167.361ZM91.2075 170.415L93.3478 170.289L93.837 178.242L89.812 178.479L89.5389 174.04L79.2527 174.645L79.5258 179.085L75.4688 179.324L74.9796 171.371L76.3213 171.292C77.2001 168.9 77.1422 164.832 77.1371 157.973L90.3941 157.192L91.2075 170.415ZM86.9269 170.667L86.3296 160.958L80.9949 161.272C80.9382 166.083 80.9715 168.71 80.3783 171.053L86.9269 170.667ZM103.323 162.265C108.658 161.951 110.496 164.215 110.687 167.313C110.878 170.411 109.33 172.875 103.995 173.189L97.9895 173.542L96.0409 173.657L95.0114 156.921L99.292 156.669L99.6495 162.482L103.323 162.265ZM103.507 169.948C105.648 169.822 106.489 168.907 106.404 167.533C106.318 166.128 105.37 165.318 103.23 165.444L99.8441 165.644L100.121 170.147L103.507 169.948ZM121.804 155.953C126.308 155.687 129.729 158.659 130.041 163.738C130.356 168.848 127.324 172.2 121.957 172.516C117.006 172.808 113.195 170.275 112.696 162.162C112.278 155.359 114.02 151.378 118.642 149.888C120.245 149.377 121.93 149.149 123.452 148.867C125.067 148.548 126.048 148.33 127.332 147.838L127.536 151.159C126.673 151.723 125.439 151.988 124.077 152.261C122.873 152.492 122.173 152.565 120.939 152.83C118.149 153.347 115.862 154.732 115.698 160.928C116.417 158.033 118.482 156.148 121.804 155.953ZM121.753 169.194C124.5 169.033 126.007 166.956 125.825 163.986C125.642 161.016 123.893 159.163 121.146 159.325C118.43 159.485 116.921 161.529 117.104 164.499C117.287 167.47 119.038 169.354 121.753 169.194ZM132.429 166.931C132.223 163.577 134.812 161.886 139.131 161.215L143.48 160.511L143.429 159.68C143.323 157.955 142.258 156.8 140.022 156.932C138.201 157.039 136.844 157.92 136.823 159.652L132.925 159.882C132.798 155.722 136.065 154.119 139.835 153.897C144.563 153.619 147.479 155.691 147.764 160.323L148.395 170.575L144.402 170.81L144.215 167.776C143.259 169.948 141.263 171.38 138.324 171.553C134.555 171.775 132.602 169.742 132.429 166.931ZM136.664 166.457C136.743 167.735 137.662 168.61 139.515 168.501C142.198 168.343 143.835 166.292 143.686 163.864L143.641 163.13L139.831 163.739C137.767 164.052 136.57 164.924 136.664 166.457Z" fill="#323232"/>
<path d="M204.039 49.8619C201.664 50.0048 200.398 48.7729 200.242 46.1663C200.164 44.8698 200.427 43.861 201.032 43.1397C201.637 42.414 202.542 42.0148 203.747 41.9423C204.63 41.8892 205.432 42.0144 206.153 42.318L205.636 43.9653C205.3 43.8531 204.989 43.7645 204.702 43.6996C204.415 43.6301 204.13 43.6039 203.848 43.6209C202.765 43.686 202.27 44.4874 202.363 46.025C202.453 47.5171 203.039 48.2305 204.122 48.1654C204.522 48.1413 204.89 48.0667 205.224 47.9415C205.559 47.8118 205.89 47.623 206.218 47.375L206.325 49.1559C206.001 49.39 205.669 49.5584 205.328 49.6611C204.992 49.7635 204.562 49.8304 204.039 49.8619ZM212.323 49.3634C211.426 49.4173 210.704 49.1344 210.155 48.5145L210.046 48.5211C210.157 49.1536 210.216 49.5199 210.222 49.6199L210.408 52.711L208.327 52.8363L207.666 41.8503L209.358 41.7484L209.711 42.7202L209.806 42.7145C210.248 41.93 210.946 41.5091 211.901 41.4516C212.802 41.3974 213.528 41.703 214.079 42.3683C214.631 43.0337 214.944 43.985 215.018 45.2223C215.067 46.0366 214.989 46.7513 214.784 47.3662C214.584 47.981 214.272 48.4585 213.85 48.799C213.428 49.1394 212.919 49.3276 212.323 49.3634ZM211.333 43.1568C210.819 43.1877 210.453 43.3695 210.236 43.7022C210.018 44.0303 209.927 44.5586 209.961 45.287L209.975 45.5121C210.024 46.331 210.18 46.9105 210.442 47.2509C210.709 47.5909 211.107 47.7451 211.634 47.7133C212.567 47.6572 212.987 46.8603 212.894 45.3227C212.849 44.5722 212.699 44.0173 212.445 43.6583C212.195 43.2944 211.824 43.1272 211.333 43.1568ZM219.749 42.4654C219.308 42.492 218.97 42.6538 218.737 42.9509C218.504 43.2435 218.384 43.6479 218.379 44.1641L221.299 43.9884C221.259 43.4749 221.101 43.0872 220.825 42.8253C220.549 42.5588 220.19 42.4389 219.749 42.4654ZM220.429 48.8756C219.201 48.9495 218.221 48.6684 217.488 48.0322C216.756 47.396 216.353 46.4569 216.278 45.215C216.201 43.9367 216.46 42.9304 217.055 42.1961C217.654 41.457 218.518 41.0534 219.646 40.9855C220.724 40.9207 221.582 41.1772 222.219 41.7552C222.857 42.3332 223.208 43.1635 223.273 44.2462L223.334 45.2561L218.414 45.5522C218.473 46.1422 218.676 46.5934 219.023 46.9057C219.371 47.2181 219.84 47.3565 220.431 47.3209C220.891 47.2933 221.322 47.2194 221.726 47.0992C222.13 46.979 222.548 46.8009 222.981 46.5648L223.078 48.1752C222.725 48.379 222.344 48.5366 221.936 48.648C221.527 48.7639 221.025 48.8398 220.429 48.8756ZM229.91 46.641L229.636 42.0965L228.074 42.1905C228.011 43.0435 227.902 43.8558 227.748 44.6276C227.598 45.399 227.368 46.1274 227.057 46.8126L229.91 46.641ZM233.366 50.7063L231.496 50.8188L231.332 48.0826L226.2 48.3914L226.365 51.1276L224.495 51.2401L224.239 46.9822L224.881 46.9436C225.277 46.2395 225.591 45.3623 225.825 44.3118C226.058 43.2614 226.194 42.0685 226.233 40.733L231.623 40.4086L231.991 46.5158L233.11 46.4484L233.366 50.7063ZM239.35 47.6001L238.885 46.5872L238.83 46.5904C238.506 47.0528 238.163 47.3816 237.8 47.5769C237.442 47.7674 236.965 47.8806 236.369 47.9164C235.637 47.9605 235.046 47.786 234.598 47.393C234.154 46.9996 233.909 46.4163 233.863 45.643C233.814 44.8332 234.06 44.2203 234.601 43.8043C235.147 43.3834 235.989 43.1181 237.128 43.0085L238.45 42.8879L238.43 42.5535C238.383 41.7802 237.964 41.4173 237.172 41.4649C236.563 41.5016 235.857 41.729 235.056 42.147L234.282 40.7828C235.133 40.2705 236.092 39.9822 237.161 39.9179C238.185 39.8563 238.983 40.032 239.556 40.4449C240.129 40.8579 240.442 41.5193 240.497 42.4291L240.803 47.5127L239.35 47.6001ZM238.523 44.1025L237.719 44.1782C237.115 44.2328 236.671 44.3691 236.388 44.587C236.104 44.805 235.975 45.1187 235.999 45.5281C236.035 46.1149 236.389 46.3881 237.062 46.3476C237.544 46.3185 237.92 46.1567 238.19 45.8619C238.465 45.5669 238.588 45.1897 238.56 44.7302L238.523 44.1025ZM242.414 49.3538C242.597 48.0781 242.74 46.8939 242.843 45.8011L244.508 45.7009L244.508 46.0365C244.274 47.0824 243.979 48.1639 243.621 49.2811L242.414 49.3538ZM251.093 46.8866L250.592 38.5687C250.531 38.6135 250.243 38.7632 249.729 39.0178C249.219 39.2677 248.93 39.4037 248.863 39.426L248.781 38.0613C248.887 38.0047 249.223 37.8133 249.787 37.4871C250.352 37.1564 250.662 36.9688 250.719 36.9243L252.22 36.834L252.819 46.7828L251.093 46.8866ZM254.286 46.7013L254.157 45.2299L257.101 41.4642C257.467 41.0221 257.728 40.6206 257.884 40.2597C258.045 39.8939 258.114 39.5154 258.09 39.1242C258.064 38.692 257.902 38.3571 257.605 38.1193C257.307 37.877 256.929 37.7696 256.469 37.7973C256.046 37.8227 255.633 37.9275 255.228 38.1116C254.828 38.291 254.503 38.5068 254.254 38.7592L253.661 37.439C254.307 36.7974 255.249 36.4394 256.486 36.365C257.469 36.3059 258.273 36.5063 258.898 36.9663C259.528 37.4214 259.871 38.0994 259.925 39.0001C259.963 39.637 259.829 40.2545 259.523 40.8528C259.221 41.4508 258.795 42.0722 258.245 42.7171L256.137 45.2409L260.169 44.9982L260.127 46.3498L254.286 46.7013ZM261.583 46.3033L261.474 44.4951L263.283 44.3862L263.392 46.1945L261.583 46.3033ZM261.235 40.5237L261.127 38.7155L262.935 38.6067L263.044 40.4149L261.235 40.5237ZM267.435 44.3144C267.707 44.5081 268.025 44.594 268.389 44.5721C268.753 44.5502 269.056 44.4269 269.298 44.2023C269.545 43.9775 269.723 43.6768 269.833 43.3004C269.947 42.9192 270.021 42.5175 270.055 42.0955C270.088 41.6688 270.09 41.1985 270.059 40.6845C269.911 38.2189 269.204 37.0241 267.939 37.1002C266.684 37.1758 266.121 38.4378 266.25 40.8863C266.281 41.4049 266.339 41.8739 266.423 42.2934C266.508 42.7129 266.63 43.1074 266.789 43.4767C266.948 43.8415 267.163 44.1208 267.435 44.3144ZM269.911 45.631C269.495 45.8387 269.016 45.9588 268.474 45.9914C267.933 46.0239 267.441 45.9622 266.998 45.8063C266.554 45.6458 266.182 45.4171 265.881 45.1202C265.58 44.8187 265.321 44.4531 265.103 44.0233C264.89 43.5933 264.728 43.1351 264.616 42.6487C264.509 42.1621 264.439 41.639 264.405 41.0794C264.371 40.5108 264.38 39.9761 264.432 39.4753C264.484 38.97 264.592 38.491 264.757 38.0382C264.921 37.5809 265.135 37.1868 265.398 36.856C265.665 36.5248 266.008 36.2554 266.424 36.0477C266.841 35.8355 267.317 35.7132 267.854 35.6809C268.391 35.6486 268.879 35.7129 269.317 35.8736C269.756 36.0299 270.126 36.2587 270.427 36.5602C270.728 36.8571 270.985 37.2228 271.198 37.6574C271.416 38.0872 271.581 38.5475 271.692 39.0384C271.804 39.5294 271.877 40.0591 271.911 40.6278C271.945 41.1873 271.936 41.7152 271.883 42.2114C271.836 42.7074 271.732 43.1839 271.572 43.6409C271.412 44.0934 271.201 44.485 270.938 44.8159C270.674 45.1468 270.332 45.4184 269.911 45.631ZM276.279 43.7823C276.551 43.9759 276.868 44.0618 277.232 44.0399C277.596 44.018 277.899 43.8948 278.142 43.6702C278.388 43.4453 278.566 43.1447 278.676 42.7683C278.79 42.387 278.864 41.9854 278.898 41.5633C278.932 41.1367 278.933 40.6664 278.902 40.1523C278.754 37.6867 278.047 36.492 276.783 36.5681C275.527 36.6436 274.964 37.9056 275.093 40.3541C275.124 40.8727 275.182 41.3418 275.267 41.7613C275.351 42.1808 275.473 42.5752 275.632 42.9446C275.791 43.3094 276.007 43.5886 276.279 43.7823ZM278.755 45.0988C278.338 45.3065 277.859 45.4266 277.318 45.4592C276.776 45.4918 276.284 45.4301 275.841 45.2741C275.398 45.1136 275.026 44.8849 274.725 44.588C274.423 44.2866 274.164 43.9209 273.946 43.4912C273.733 43.0611 273.571 42.6029 273.46 42.1166C273.353 41.6299 273.282 41.1068 273.249 40.5473C273.215 39.9787 273.224 39.444 273.276 38.9432C273.327 38.4379 273.435 37.9588 273.6 37.5061C273.764 37.0488 273.978 36.6547 274.241 36.3238C274.509 35.9927 274.851 35.7233 275.268 35.5156C275.684 35.3033 276.161 35.1811 276.697 35.1488C277.234 35.1165 277.722 35.1807 278.161 35.3415C278.599 35.4977 278.969 35.7266 279.27 36.028C279.571 36.3249 279.829 36.6907 280.042 37.1253C280.259 37.555 280.424 38.0154 280.536 38.5063C280.648 38.9972 280.721 39.527 280.755 40.0956C280.788 40.6552 280.779 41.183 280.727 41.6793C280.679 42.1752 280.575 42.6517 280.416 43.1087C280.256 43.5612 280.044 43.9529 279.781 44.2838C279.518 44.6146 279.176 44.8863 278.755 45.0988Z" fill="#292A2B"/>
<path fill-rule="evenodd" clip-rule="evenodd" d="M71.9337 41.729L69.6871 41.8527L69.5634 39.6061C69.495 38.3654 68.4338 37.415 67.193 37.4833C65.9523 37.5517 65.0018 38.6129 65.0702 39.8537L65.194 42.1003L51.7144 42.8428L51.5906 40.5962C51.5223 39.3555 50.461 38.4051 49.2203 38.4734C47.9795 38.5418 47.0291 39.603 47.0974 40.8438L47.2212 43.0904L44.9746 43.2141C41.2523 43.4192 38.4011 46.6029 38.6061 50.3252L40.0913 77.2843C40.2963 81.0066 43.4801 83.8579 47.2023 83.6528L74.1615 82.1677C77.8837 81.9626 80.735 78.7789 80.53 75.0566L79.0448 48.0975C78.8397 44.3752 75.656 41.5239 71.9337 41.729ZM45.2221 47.7073L47.4687 47.5835L47.5925 49.8301C47.6608 51.0709 48.7221 52.0213 49.9628 51.953C51.2036 51.8846 52.154 50.8234 52.0857 49.5826L51.9619 47.336L65.4415 46.5934L65.5652 48.84C65.6336 50.0808 66.6948 51.0312 67.9356 50.9629C69.1764 50.8945 70.1268 49.8333 70.0584 48.5925L69.9347 46.3459L72.1813 46.2222C73.422 46.1538 74.4833 47.1042 74.5516 48.345L75.0467 57.3314L43.5944 59.064L43.0993 50.0777C43.031 48.8369 43.9814 47.7757 45.2221 47.7073ZM44.5845 77.0368C44.6528 78.2776 45.7141 79.228 46.9548 79.1596L73.9139 77.6745C75.1547 77.6061 76.1051 76.5449 76.0368 75.3041L75.2942 61.8246L43.8419 63.5572L44.5845 77.0368ZM52.454 68.2496C53.3797 69.0787 53.4581 70.5011 52.629 71.4268C51.8 72.3525 50.3776 72.4308 49.4519 71.6018C48.5262 70.7728 48.4479 69.3503 49.2769 68.4247C50.1059 67.499 51.5284 67.4206 52.454 68.2496ZM59.8156 67.1841L68.8019 66.689C70.0427 66.6207 71.1039 67.5711 71.1723 68.8119C71.2406 70.0526 70.2902 71.1139 69.0495 71.1822L60.0631 71.6773C58.8223 71.7456 57.7611 70.7952 57.6927 69.5544C57.6244 68.3137 58.5748 67.2524 59.8156 67.1841Z" fill="#292A2B"/>
<defs>
<filter id="filter0_b_420_4747" x="-19.0684" y="-19.0684" width="362.931" height="295.386" filterUnits="userSpaceOnUse" color-interpolation-filters="sRGB">
<feFlood flood-opacity="0" result="BackgroundImageFix"/>
<feGaussianBlur in="BackgroundImageFix" stdDeviation="10"/>
<feComposite in2="SourceAlpha" operator="in" result="effect1_backgroundBlur_420_4747"/>
<feBlend mode="normal" in="SourceGraphic" in2="effect1_backgroundBlur_420_4747" result="shape"/>
</filter>
</defs>
</svg>
