<svg width="312" height="240" viewBox="0 0 312 240" fill="none" xmlns="http://www.w3.org/2000/svg">
<g filter="url(#filter0_b_84_2748)">
<rect x="0.241943" width="311" height="239" rx="16" transform="rotate(0.0579938 0.241943 0)" fill="#DCD9D9" fill-opacity="0.4"/>
</g>
<path d="M49.7136 120.974L51.5354 123.152C50.062 124.59 47.5965 126.06 44.2365 126.057C37.3885 126.05 32.8174 121.213 32.8241 114.557C32.8308 107.933 37.4758 103.042 44.1958 103.049C47.0758 103.051 49.5708 103.982 51.3292 105.616L49.4708 107.918C48.192 106.797 46.3368 105.963 44.1928 105.961C39.2328 105.955 36.1252 109.568 36.1201 114.56C36.1151 119.552 39.4714 123.14 44.2714 123.145C46.7994 123.147 48.5606 121.997 49.7136 120.974ZM66.527 108.543L59.5109 116.504L66.7656 125.663L63.0216 125.66L56.5658 117.621L56.5576 125.653L53.5176 125.65L53.535 108.53L56.575 108.533L56.5677 115.765L62.847 108.539L66.527 108.543ZM67.5997 120.192C67.603 116.928 69.9734 114.563 73.3974 114.566C75.1254 114.568 76.3728 115.177 76.9482 115.722L76.9497 114.282C76.9519 112.074 75.9292 110.825 73.9132 110.823C71.8332 110.82 71.0958 112.132 71.0624 113.54L68.2144 113.537C68.2495 110.529 70.1077 108.355 73.9477 108.359C78.2677 108.363 79.9611 110.861 79.9573 114.637L79.9461 125.677L77.2581 125.674L77.2595 124.33C76.4586 125.257 75.2099 125.928 73.3859 125.926C70.1219 125.923 67.5961 123.712 67.5997 120.192ZM70.5437 120.195C70.5418 122.019 71.8524 123.429 73.7404 123.43C75.5964 123.432 77.0058 122.026 77.0077 120.202C77.0096 118.346 75.6029 117 73.7149 116.998C71.7949 116.996 70.5455 118.371 70.5437 120.195ZM86.075 108.563L86.0681 115.315L92.0841 115.321L92.091 108.569L95.131 108.572L95.1136 125.692L92.0736 125.689L92.0813 118.105L86.0653 118.099L86.0576 125.683L83.0176 125.68L83.035 108.56L86.075 108.563ZM99.1398 118.368L99.4697 108.576L110.542 108.588L110.527 122.924L112.735 122.926L112.728 130.19L109.944 130.187L109.948 125.707L99.4204 125.696L99.4158 130.176L96.6638 130.174L96.6712 122.91L96.9592 122.91C98.6232 122.912 99.0401 122.016 99.1398 118.368ZM107.487 122.921L107.499 111.369L102.251 111.363L102.052 118.275C101.986 120.227 101.792 121.763 101.311 122.914L107.487 122.921ZM117.356 108.595L117.344 120.627L123.692 108.601L126.732 108.604L126.715 125.724L123.675 125.721L123.687 113.689L117.339 125.715L114.299 125.711L114.316 108.591L117.356 108.595ZM132.919 108.61L132.912 115.362L138.928 115.368L138.935 108.616L141.975 108.619L141.957 125.739L138.917 125.736L138.925 118.152L132.909 118.146L132.901 125.73L129.861 125.727L129.879 108.607L132.919 108.61ZM144.35 120.27C144.353 117.006 146.723 114.64 150.147 114.644C151.875 114.646 153.123 115.255 153.698 115.799L153.7 114.359C153.702 112.151 152.679 110.902 150.663 110.9C148.583 110.898 147.846 112.209 147.812 113.617L144.964 113.615C144.999 110.607 146.858 108.432 150.698 108.436C155.018 108.441 156.711 110.938 156.707 114.714L156.696 125.754L154.008 125.752L154.009 124.408C153.209 125.335 151.96 126.006 150.136 126.004C146.872 126 144.346 123.79 144.35 120.27ZM147.294 120.273C147.292 122.097 148.602 123.506 150.49 123.508C152.346 123.51 153.756 122.103 153.758 120.279C153.76 118.423 152.353 117.078 150.465 117.076C148.545 117.074 147.295 118.449 147.294 120.273ZM159.768 125.758L159.785 108.638L165.257 108.643C168.905 108.647 171.047 110.249 171.044 113.161C171.043 114.921 169.985 116.2 168.641 116.838C170.304 117.384 171.615 118.697 171.613 120.873C171.609 123.945 169.24 125.767 165.464 125.763L159.768 125.758ZM164.934 111.107L162.822 111.105L162.818 115.809L164.93 115.811C166.85 115.813 167.875 114.95 167.876 113.414C167.878 111.942 166.886 111.109 164.934 111.107ZM165.215 118.147L162.815 118.145L162.81 123.297L165.21 123.299C167.354 123.301 168.443 122.278 168.445 120.742C168.446 119.174 167.391 118.149 165.215 118.147ZM182.051 123.316C184.323 123.318 185.7 122.2 186.565 121.369L188.355 123.258C187.33 124.473 185.281 126.071 182.017 126.068C176.737 126.063 173.252 122.283 173.257 117.227C173.263 112.203 176.978 108.367 182.002 108.372C185.362 108.375 187.409 109.913 188.368 111.13L186.478 113.049C185.583 112.088 184.176 111.126 182.032 111.124C178.64 111.121 176.365 113.742 176.361 117.23C176.358 120.878 178.851 123.313 182.051 123.316ZM203.308 108.682L196.292 116.642L203.547 125.802L199.803 125.798L193.347 117.759L193.339 125.791L190.299 125.788L190.316 108.668L193.356 108.671L193.349 115.903L199.628 108.678L203.308 108.682ZM204.381 120.331C204.384 117.067 206.755 114.701 210.179 114.705C211.907 114.706 213.154 115.316 213.729 115.86L213.731 114.42C213.733 112.212 212.71 110.963 210.694 110.961C208.614 110.959 207.877 112.27 207.844 113.678L204.996 113.675C205.031 110.667 206.889 108.493 210.729 108.497C215.049 108.501 216.742 110.999 216.738 114.775L216.727 125.815L214.039 125.812L214.041 124.468C213.24 125.396 211.991 126.066 210.167 126.065C206.903 126.061 204.377 123.851 204.381 120.331ZM207.325 120.334C207.323 122.158 208.634 123.567 210.522 123.569C212.378 123.571 213.787 122.164 213.789 120.34C213.791 118.484 212.384 117.139 210.496 117.137C208.576 117.135 207.327 118.51 207.325 120.334ZM231.272 108.71L231.255 125.83L228.215 125.827L228.221 119.395L225.885 119.392L221.719 125.82L218.391 125.817L222.974 118.781C220.671 117.979 219.552 116.314 219.555 114.106C219.558 110.618 221.928 108.7 225.992 108.705L231.272 108.71ZM225.92 116.768L228.224 116.771L228.229 111.427L225.989 111.425C223.813 111.422 222.692 112.445 222.691 114.141C222.689 115.741 223.808 116.766 225.92 116.768ZM45.1005 157.641L40.211 151.205L35.3085 157.632L31.9165 157.628L38.5174 148.835L32.3178 140.509L35.9338 140.512L40.3439 146.373L44.7658 140.521L48.2218 140.525L42.0055 148.774L48.5885 157.645L45.1005 157.641ZM47.9127 149.1C47.9179 143.916 51.7296 140.24 56.7536 140.245C61.9056 140.25 65.5819 143.966 65.5767 149.086C65.5715 154.206 61.7597 157.946 56.7037 157.941C51.5837 157.936 47.9074 154.316 47.9127 149.1ZM50.9847 149.103C50.9811 152.655 53.3785 155.186 56.7385 155.189C60.1305 155.193 62.5011 152.667 62.5047 149.115C62.5082 145.595 60.1108 143.001 56.7508 142.997C53.3268 142.994 50.9883 145.551 50.9847 149.103ZM68.7949 150.337L69.1248 140.546L80.1968 140.557L80.1823 154.893L82.3903 154.895L82.383 162.159L79.599 162.156L79.6035 157.676L69.0755 157.666L69.071 162.146L66.319 162.143L66.3263 154.879L66.6143 154.879C68.2783 154.881 68.6952 153.985 68.7949 150.337ZM77.1423 154.89L77.154 143.338L71.906 143.333L71.707 150.244C71.641 152.196 71.4475 153.732 70.9663 154.884L77.1423 154.89ZM83.954 157.681L83.9713 140.561L87.0113 140.564L87.0051 146.708L88.9571 146.71C92.9891 146.714 95.5151 148.668 95.5116 152.156C95.508 155.708 93.01 157.69 88.978 157.686L83.954 157.681ZM88.9863 149.43L87.0023 149.428L86.9967 154.964L88.9807 154.966C91.2207 154.968 92.3418 153.945 92.3436 152.121C92.3453 150.457 91.1943 149.432 88.9863 149.43ZM97.2946 148.894C97.2971 146.462 97.3302 145.374 97.5242 143.391C97.977 138.687 99.6119 135.809 106.269 135.047L113.95 134.159L113.947 136.943L106.33 137.831C101.945 138.371 100.728 139.65 100.372 143.745C101.782 141.891 104.087 141.061 106.359 141.063C111.255 141.068 114.995 144.592 114.99 149.52C114.985 154.416 111.173 157.996 106.085 157.991C100.933 157.986 97.2889 154.558 97.2946 148.894ZM100.366 149.537C100.363 152.897 102.76 155.236 106.12 155.239C109.512 155.243 111.915 152.877 111.918 149.549C111.921 146.253 109.524 143.819 106.132 143.815C102.708 143.812 100.369 146.209 100.366 149.537ZM116.567 152.242C116.571 148.978 118.941 146.612 122.365 146.616C124.093 146.617 125.34 147.227 125.916 147.771L125.917 146.331C125.919 144.123 124.897 142.874 122.881 142.872C120.801 142.87 120.063 144.181 120.03 145.589L117.182 145.586C117.217 142.578 119.075 140.404 122.915 140.408C127.235 140.413 128.929 142.91 128.925 146.686L128.914 157.726L126.226 157.724L126.227 156.38C125.426 157.307 124.177 157.978 122.353 157.976C119.089 157.972 116.564 155.762 116.567 152.242ZM119.511 152.245C119.509 154.069 120.82 155.478 122.708 155.48C124.564 155.482 125.973 154.075 125.975 152.251C125.977 150.395 124.571 149.05 122.683 149.048C120.763 149.046 119.513 150.421 119.511 152.245Z" fill="#323232"/>
<path d="M208.982 44.0127C206.603 44.0103 205.415 42.7034 205.418 40.0921C205.419 38.7932 205.744 37.8024 206.392 37.1194C207.039 36.4319 207.967 36.0888 209.175 36.09C210.059 36.0909 210.852 36.2649 211.553 36.6119L210.936 38.2246C210.608 38.0921 210.303 37.9847 210.021 37.9024C209.738 37.8155 209.456 37.7719 209.173 37.7716C208.089 37.7705 207.545 38.5402 207.544 40.0805C207.542 41.5753 208.084 42.3233 209.169 42.3244C209.57 42.3248 209.941 42.2727 210.283 42.1683C210.625 42.0592 210.967 41.891 211.309 41.6635L211.307 43.4476C210.97 43.6615 210.628 43.8093 210.281 43.8909C209.939 43.9726 209.506 44.0132 208.982 44.0127ZM217.281 44.0211C216.383 44.0202 215.68 43.6936 215.17 43.0414L215.06 43.0413C215.133 43.6794 215.169 44.0485 215.169 44.1488L215.166 47.2455L213.081 47.2434L213.092 36.2375L214.787 36.2392L215.08 37.2307L215.176 37.2308C215.664 36.4748 216.387 36.0973 217.344 36.0983C218.246 36.0992 218.952 36.4485 219.462 37.1463C219.972 37.8441 220.226 38.8128 220.225 40.0524C220.224 40.8681 220.102 41.5767 219.86 42.178C219.623 42.7793 219.283 43.237 218.84 43.551C218.398 43.865 217.878 44.0217 217.281 44.0211ZM216.672 37.7656C216.157 37.765 215.781 37.9242 215.544 38.2429C215.306 38.5571 215.183 39.0788 215.173 39.808L215.173 40.0336C215.172 40.8539 215.292 41.4419 215.533 41.7976C215.779 42.1533 216.166 42.3315 216.695 42.332C217.629 42.3329 218.097 41.5632 218.099 40.0229C218.099 39.2709 217.984 38.708 217.752 38.334C217.524 37.9556 217.164 37.7661 216.672 37.7656ZM225.115 37.5895C224.673 37.5891 224.326 37.73 224.075 38.0123C223.824 38.2901 223.68 38.6864 223.643 39.2013L226.569 39.2043C226.561 38.6893 226.427 38.2927 226.167 38.0144C225.908 37.7316 225.557 37.59 225.115 37.5895ZM225.402 44.0293C224.172 44.028 223.21 43.6875 222.518 43.0078C221.826 42.3281 221.481 41.3661 221.482 40.122C221.484 38.8414 221.804 37.8528 222.442 37.1562C223.086 36.455 223.972 36.105 225.103 36.1061C226.183 36.1072 227.023 36.4157 227.624 37.0315C228.225 37.6474 228.525 38.4976 228.524 39.5822L228.523 40.594L223.594 40.589C223.616 41.1814 223.791 41.6442 224.119 41.9772C224.447 42.3102 224.907 42.477 225.499 42.4776C225.96 42.4781 226.395 42.4307 226.805 42.3354C227.216 42.2401 227.644 42.0879 228.091 41.8787L228.089 43.492C227.724 43.6739 227.335 43.8079 226.92 43.8941C226.505 43.9848 225.999 44.0299 225.402 44.0293ZM235.002 42.3779L235.006 37.8251L233.441 37.8236C233.326 38.6711 233.168 39.4753 232.967 40.2362C232.77 40.997 232.496 41.71 232.144 42.375L235.002 42.3779ZM238.203 46.6467L236.33 46.6448L236.333 43.9036L231.192 43.8984L231.19 46.6396L229.317 46.6377L229.321 42.3721L229.963 42.3728C230.402 41.6942 230.769 40.8378 231.067 39.8036C231.364 38.7694 231.572 37.587 231.692 36.2564L237.093 36.2618L237.086 42.38L238.208 42.3811L238.203 46.6467ZM244.365 43.9118L243.963 42.8723L243.908 42.8722C243.557 43.3139 243.194 43.6212 242.82 43.794C242.451 43.9622 241.968 44.0461 241.371 44.0454C240.637 44.0447 240.059 43.8345 239.635 43.4148C239.216 42.9951 239.007 42.3979 239.008 41.6231C239.009 40.8119 239.292 40.2152 239.858 39.833C240.428 39.4462 241.285 39.2329 242.429 39.193L243.755 39.1533L243.755 38.8184C243.756 38.0436 243.36 37.6559 242.567 37.6551C241.956 37.6544 241.238 37.8383 240.413 38.2066L239.724 36.7977C240.604 36.3383 241.579 36.1091 242.65 36.1102C243.676 36.1113 244.462 36.3354 245.008 36.7825C245.555 37.2297 245.827 37.909 245.826 38.8205L245.821 43.9132L244.365 43.9118ZM243.754 40.3701L242.947 40.3967C242.341 40.4143 241.889 40.5232 241.593 40.7234C241.297 40.9236 241.148 41.2288 241.148 41.639C241.147 42.2269 241.484 42.5211 242.159 42.5218C242.642 42.5223 243.027 42.3837 243.314 42.106C243.606 41.8283 243.752 41.4593 243.753 40.999L243.754 40.3701ZM247.316 45.8493C247.577 44.5872 247.793 43.4139 247.963 42.3295L249.63 42.3312L249.61 42.6661C249.312 43.6957 248.951 44.7572 248.526 45.8505L247.316 45.8493ZM256.13 43.9168L256.138 35.5838C256.074 35.6248 255.778 35.7566 255.249 35.9794C254.725 36.1976 254.429 36.3158 254.36 36.334L254.362 34.9668C254.471 34.9168 254.818 34.7462 255.401 34.4552C255.985 34.1595 256.306 33.9912 256.366 33.9503L257.869 33.9518L257.859 43.9186L256.13 43.9168ZM259.329 43.9269L259.29 42.4503L262.458 38.8715C262.851 38.4526 263.136 38.0678 263.314 37.7171C263.497 37.3618 263.588 36.9882 263.588 36.5963C263.589 36.1633 263.448 35.8191 263.166 35.5636C262.883 35.3035 262.512 35.1733 262.052 35.1728C261.628 35.1724 261.209 35.2517 260.794 35.4108C260.383 35.5653 260.046 35.761 259.781 35.9977L259.27 34.6436C259.954 34.0428 260.916 33.743 262.156 33.7442C263.14 33.7452 263.931 33.9944 264.527 34.4917C265.128 34.9845 265.428 35.6821 265.427 36.5844C265.427 37.2225 265.255 37.8307 264.913 38.4091C264.575 38.9876 264.112 39.5818 263.523 40.1919L261.265 42.5822L265.305 42.5863L265.181 43.9328L259.329 43.9269ZM266.637 43.9753L266.638 42.1638L268.45 42.1656L268.448 43.9772L266.637 43.9753ZM266.642 38.1853L266.644 36.3738L268.456 36.3756L268.454 38.1871L266.642 38.1853ZM272.599 42.3476C272.859 42.5575 273.171 42.6626 273.535 42.663C273.9 42.6633 274.21 42.5588 274.465 42.3495C274.725 42.1401 274.922 41.8509 275.054 41.4819C275.191 41.1083 275.29 40.7119 275.349 40.2927C275.409 39.869 275.439 39.3996 275.44 38.8846C275.442 36.4146 274.81 35.1789 273.543 35.1776C272.285 35.1763 271.646 36.4016 271.625 38.8534C271.625 39.3729 271.654 39.8447 271.713 40.2685C271.771 40.6924 271.869 41.0936 272.005 41.472C272.142 41.8458 272.34 42.1377 272.599 42.3476ZM274.99 43.8129C274.562 43.9947 274.076 44.0854 273.534 44.0848C272.992 44.0843 272.504 43.9927 272.071 43.8099C271.639 43.6226 271.281 43.3716 270.999 43.0569C270.717 42.7376 270.48 42.3568 270.289 41.9146C270.103 41.4723 269.969 41.0051 269.887 40.5128C269.81 40.0205 269.772 39.4941 269.773 38.9336C269.773 38.3639 269.815 37.8307 269.897 37.3341C269.98 36.8329 270.117 36.3613 270.309 35.9195C270.501 35.473 270.738 35.0927 271.021 34.7786C271.308 34.4644 271.666 34.2164 272.095 34.0345C272.524 33.8481 273.007 33.7552 273.544 33.7557C274.082 33.7563 274.565 33.8502 274.993 34.0375C275.422 34.2202 275.777 34.4712 276.059 34.7905C276.341 35.1053 276.576 35.486 276.762 35.9328C276.953 36.3751 277.089 36.8446 277.171 37.3414C277.252 37.8383 277.293 38.3715 277.292 38.9412C277.292 39.5017 277.25 40.0281 277.167 40.5202C277.09 41.0123 276.957 41.4815 276.77 41.928C276.582 42.3698 276.347 42.7478 276.064 43.062C275.781 43.3762 275.423 43.6265 274.99 43.8129ZM281.459 42.3565C281.718 42.5664 282.03 42.6716 282.395 42.6719C282.759 42.6723 283.069 42.5678 283.325 42.3584C283.585 42.149 283.781 41.8599 283.914 41.4909C284.051 41.1173 284.149 40.7209 284.209 40.3017C284.268 39.8779 284.298 39.4086 284.299 38.8936C284.302 36.4235 283.669 35.1879 282.402 35.1866C281.145 35.1853 280.505 36.4106 280.485 38.8624C280.484 39.3819 280.513 39.8536 280.572 40.2775C280.631 40.7014 280.728 41.1025 280.865 41.4809C281.001 41.8548 281.199 42.1466 281.459 42.3565ZM283.85 43.8218C283.421 44.0037 282.936 44.0944 282.393 44.0938C281.851 44.0933 281.364 44.0016 280.931 43.8189C280.498 43.6316 280.141 43.3806 279.858 43.0658C279.576 42.7466 279.339 42.3658 279.148 41.9235C278.962 41.4813 278.828 41.014 278.747 40.5218C278.67 40.0295 278.631 39.5031 278.632 38.9425C278.633 38.3729 278.674 37.8397 278.757 37.3431C278.839 36.8418 278.976 36.3703 279.168 35.9284C279.36 35.482 279.597 35.1017 279.88 34.7875C280.168 34.4734 280.526 34.2254 280.954 34.0435C281.383 33.8571 281.866 33.7642 282.404 33.7647C282.942 33.7653 283.425 33.8592 283.853 34.0464C284.281 34.2292 284.636 34.4802 284.918 34.7995C285.201 35.1142 285.435 35.495 285.621 35.9418C285.812 36.384 285.949 36.8536 286.03 37.3504C286.112 37.8472 286.152 38.3805 286.152 38.9501C286.151 39.5107 286.109 40.037 286.027 40.5291C285.949 41.0212 285.816 41.4905 285.629 41.9369C285.442 42.3788 285.207 42.7568 284.924 43.071C284.641 43.3851 284.283 43.6354 283.85 43.8218Z" fill="#CC2222"/>
<path fill-rule="evenodd" clip-rule="evenodd" d="M69.6563 43.3692L67.4064 43.3555L67.4201 41.1056C67.4276 39.8629 66.4264 38.8495 65.1838 38.8419C63.9412 38.8344 62.9277 39.8356 62.9201 41.0782L62.9065 43.3282L49.4067 43.2461L49.4204 40.9961C49.428 39.7535 48.4267 38.74 47.1841 38.7325C45.9415 38.7249 44.928 39.7261 44.9205 40.9687L44.9068 43.2187L42.6568 43.205C38.929 43.1824 35.8886 46.186 35.8659 49.9139L35.7017 76.9134C35.6791 80.6412 38.6827 83.6816 42.4106 83.7043L69.4101 83.8685C73.1379 83.8911 76.1783 80.8875 76.201 77.1596L76.3652 50.1601C76.3878 46.4323 73.3842 43.3919 69.6563 43.3692ZM42.6295 47.7049L44.8794 47.7186L44.8658 49.9686C44.8582 51.2112 45.8594 52.2247 47.102 52.2322C48.3446 52.2398 49.3581 51.2386 49.3657 49.9959L49.3794 47.746L62.8791 47.8281L62.8654 50.078C62.8579 51.3207 63.8591 52.3341 65.1017 52.3417C66.3443 52.3492 67.3578 51.348 67.3653 50.1054L67.379 47.8554L69.629 47.8691C70.8716 47.8767 71.8728 48.8901 71.8653 50.1328L71.8105 59.1326L40.3111 58.9411L40.3658 49.9412C40.3734 48.6986 41.3869 47.6974 42.6295 47.7049ZM40.2017 76.9407C40.1941 78.1833 41.1953 79.1968 42.4379 79.2044L69.4374 79.3685C70.6801 79.3761 71.6935 78.3749 71.7011 77.1323L71.7832 63.6325L40.2837 63.441L40.2017 76.9407ZM48.5932 68.6506C49.4665 69.5346 49.4579 70.9592 48.5739 71.8325C47.6899 72.7058 46.2653 72.6972 45.392 71.8132C44.5186 70.9292 44.5273 69.5046 45.4113 68.6313C46.2953 67.7579 47.7199 67.7666 48.5932 68.6506ZM56.0061 68.0367L65.0059 68.0914C66.2485 68.0989 67.2498 69.1124 67.2422 70.355C67.2346 71.5976 66.2212 72.5989 64.9786 72.5913L55.9787 72.5366C54.7361 72.529 53.7349 71.5156 53.7425 70.2729C53.75 69.0303 54.7635 68.0291 56.0061 68.0367Z" fill="#292A2B"/>
<defs>
<filter id="filter0_b_84_2748" x="-19.9839" y="-19.9838" width="351.209" height="279.282" filterUnits="userSpaceOnUse" color-interpolation-filters="sRGB">
<feFlood flood-opacity="0" result="BackgroundImageFix"/>
<feGaussianBlur in="BackgroundImageFix" stdDeviation="10"/>
<feComposite in2="SourceAlpha" operator="in" result="effect1_backgroundBlur_84_2748"/>
<feBlend mode="normal" in="SourceGraphic" in2="effect1_backgroundBlur_84_2748" result="shape"/>
</filter>
</defs>
</svg>

