<svg width="327" height="252" viewBox="0 0 327 252" fill="none" xmlns="http://www.w3.org/2000/svg">
<g filter="url(#filter0_b_420_4736)">
<rect y="12.5024" width="311" height="239" rx="16" transform="rotate(-2.25249 0 12.5024)" fill="white" fill-opacity="0.7"/>
</g>
<path d="M56.028 121.036L63.7905 120.578L65.1306 142.938L60.882 143.189L59.6687 123.418L55.6431 143.498L49.5737 143.856L43.1235 124.426L44.3348 144.165L40.0542 144.418L38.6822 122.06L46.5086 121.598L52.4776 141.024L56.028 121.036ZM80.1519 125.255L84.688 124.987L80.271 143.391C79.3797 147.675 77.6653 148.994 73.8 149.222C73.1931 149.258 72.3925 149.273 71.4922 149.23L71.2923 145.972C71.997 145.963 72.7337 145.951 73.3087 145.917C75.0337 145.816 75.9007 145.316 76.3743 143.108L76.547 142.264L74.0234 142.413L67.1505 126.022L71.7505 125.75L77.3336 140.455L80.1519 125.255ZM96.5047 132.368C99.4313 132.516 101.796 133.434 101.97 136.276C102.115 138.64 100.703 141.224 94.5378 141.587C89.9378 141.859 86.6753 140.417 86.133 136.281L90.276 135.877C90.5513 137.752 92.0059 138.467 94.3378 138.33C96.7337 138.188 97.7669 137.262 97.6845 135.92C97.6022 134.579 96.4391 133.91 93.8196 134.065L92.0627 134.168L91.8941 131.422L93.4594 131.329C95.8552 131.188 96.7287 130.271 96.6601 129.153C96.5837 127.907 95.3886 127.24 93.6955 127.34C91.9705 127.442 90.5761 128.23 90.4643 130.063L86.3317 130.115C86.3722 126.074 89.5345 124.316 93.4956 124.083C98.4789 123.788 100.731 125.483 100.89 128.07C101.013 130.082 99.8934 131.687 96.5047 132.368ZM112.141 129.201C117.476 128.886 119.314 131.15 119.504 134.248C119.694 137.346 118.146 139.81 112.811 140.125L107.189 140.456L105.241 140.571L104.214 123.835L108.494 123.582L108.851 129.395L112.141 129.201ZM121.08 122.84L125.361 122.587L126.388 139.323L122.107 139.576L121.08 122.84ZM112.324 136.884C114.464 136.757 115.306 135.842 115.222 134.469C115.135 133.063 114.188 132.254 112.048 132.38L109.045 132.557L109.321 137.061L112.324 136.884ZM146.55 138.134L141.279 138.445L135.72 131.977L134.187 132.068L134.603 138.839L130.322 139.091L129.295 122.355L133.575 122.102L133.983 128.746L135.548 128.653L139.996 121.723L145.044 121.426L138.663 129.784L146.55 138.134ZM147.12 133.516C146.914 130.163 149.503 128.471 153.822 127.8L158.171 127.094L158.12 126.264C158.014 124.539 156.95 123.384 154.713 123.516C152.893 123.623 151.536 124.504 151.514 126.237L147.617 126.467C147.49 122.307 150.758 120.704 154.527 120.481C159.255 120.202 162.171 122.274 162.456 126.905L163.085 137.158L159.092 137.394L158.905 134.359C157.949 136.532 155.953 137.964 153.014 138.137C149.244 138.359 147.292 136.327 147.12 133.516ZM151.355 133.042C151.433 134.32 152.352 135.195 154.205 135.086C156.888 134.927 158.526 132.875 158.377 130.448L158.332 129.713L154.522 130.323C152.457 130.637 151.261 131.509 151.355 133.042ZM167.774 120.084L180.967 119.306L181.994 136.042L177.713 136.295L176.902 123.072L171.727 123.377C171.657 132.165 172.169 136.847 167.313 137.133C166.674 137.171 166.065 137.175 165.516 137.111L165.303 133.629C165.658 133.673 165.85 133.661 166.073 133.648C168.277 133.518 167.753 127.587 167.774 120.084ZM193.197 124.418C198.531 124.104 200.369 126.367 200.56 129.465C200.75 132.564 199.202 135.027 193.867 135.342L187.861 135.696L185.913 135.811L184.886 119.075L189.166 118.822L189.523 124.635L193.197 124.418ZM193.38 132.101C195.52 131.975 196.361 131.06 196.277 129.686C196.191 128.281 195.243 127.471 193.103 127.597L189.717 127.797L189.993 132.301L193.38 132.101ZM203.819 134.755L202.792 118.018L207.073 117.766L207.469 124.217L214.528 123.801L214.132 117.349L218.413 117.096L219.44 133.833L215.159 134.086L214.744 127.314L207.684 127.731L208.1 134.502L203.819 134.755ZM230.248 122.232C235.583 121.917 237.421 124.181 237.611 127.279C237.801 130.377 236.253 132.841 230.918 133.156L225.296 133.487L223.348 133.602L222.321 116.866L226.601 116.613L226.958 122.426L230.248 122.232ZM239.187 115.871L243.468 115.618L244.495 132.355L240.214 132.607L239.187 115.871ZM230.431 129.915C232.571 129.788 233.413 128.873 233.329 127.5C233.242 126.095 232.295 125.285 230.155 125.411L227.152 125.588L227.428 130.092L230.431 129.915ZM255.486 112.857C252.036 113.061 250.351 111.205 250.083 108.4L252.862 108.236C253.023 109.284 253.646 110.562 255.339 110.462C257 110.364 257.463 109.022 257.494 107.963L260.273 107.799C260.35 110.615 258.936 112.654 255.486 112.857ZM257.433 114.794L263.789 114.419L264.817 131.155L260.696 131.399L259.869 117.92L254.786 131.747L248.429 132.122L247.402 115.386L251.523 115.143L252.35 128.621L257.433 114.794ZM51.0964 167.103C53.8932 167.226 56.2898 168.142 56.4564 170.857C56.5936 173.093 55.2712 175.575 50.0962 175.881L41.4712 176.39L40.4441 159.653L48.6219 159.171C53.19 158.901 55.2503 160.607 55.3973 163.002C55.511 164.855 54.4212 166.426 51.0964 167.103ZM44.9187 162.563L45.1441 166.236L48.7539 166.023C50.6705 165.91 51.2265 165.043 51.1638 164.021C51.1011 162.999 50.4132 162.238 48.3368 162.361L44.9187 162.563ZM49.5508 172.739C51.5952 172.619 52.2431 171.683 52.1745 170.565C52.1 169.351 51.2224 168.634 49.146 168.756L45.3127 168.982L45.5577 172.975L49.5508 172.739ZM58.4398 166.99C58.0732 161.017 61.4805 158.027 66.5277 157.729C71.7985 157.418 74.8839 160.153 75.2896 166.765L75.319 167.244L62.8287 167.981C63.3363 171.028 65.1795 172.33 67.6392 172.185C69.492 172.076 70.593 171.209 71.1476 169.798L75.2522 169.812C74.5798 172.961 71.9782 174.974 67.8254 175.219C62.6185 175.526 58.8102 173.026 58.4398 166.99ZM62.6621 165.266L70.9357 164.778C70.6133 162.136 69.0778 160.624 66.7139 160.764C64.4459 160.897 62.8671 162.337 62.6621 165.266ZM88.1354 156.839L92.416 156.586L93.4431 173.323L89.1625 173.576L88.7744 167.251C87.3226 167.626 85.3577 167.998 83.9202 168.083C80.2786 168.298 77.8467 166.806 77.5723 162.335L77.2743 157.48L81.5549 157.227L81.8215 161.571C81.9665 163.935 82.9399 164.647 85.208 164.513C86.5496 164.434 87.5862 164.084 88.5569 163.706L88.1354 156.839ZM96.0618 164.77C95.6953 158.797 99.1026 155.807 104.15 155.509C109.421 155.198 112.506 157.933 112.912 164.545L112.941 165.024L100.451 165.761C100.958 168.808 102.802 170.11 105.261 169.965C107.114 169.856 108.215 168.989 108.77 167.578L112.874 167.592C112.202 170.742 109.6 172.754 105.447 172.999C100.241 173.307 96.4323 170.807 96.0618 164.77ZM100.284 163.046L108.558 162.558C108.235 159.916 106.7 158.404 104.336 158.544C102.068 158.678 100.489 160.117 100.284 163.046ZM116.827 178.354L115.408 155.23L119.401 154.994L119.589 158.06C120.63 155.691 122.667 154.417 125.031 154.277C129.152 154.034 132.385 157.081 132.724 162.607C133.063 168.132 130.226 171.537 126.137 171.779C123.933 171.909 121.89 171.003 120.552 169.063L121.107 178.102L116.827 178.354ZM120.01 163.357C120.208 166.583 121.972 168.69 124.592 168.536C127.211 168.381 128.705 166.081 128.507 162.855C128.309 159.63 126.545 157.522 123.925 157.676C121.306 157.831 119.812 160.131 120.01 163.357Z" fill="#323232"/>
<path d="M201.905 46.4451C199.528 46.5441 198.285 45.289 198.177 42.68C198.122 41.3823 198.405 40.3784 199.023 39.6685C199.641 38.9541 200.553 38.5717 201.76 38.5215C202.643 38.4847 203.442 38.6247 204.158 38.9416L203.61 40.5791C203.277 40.4607 202.968 40.3664 202.682 40.2962C202.396 40.2214 202.112 40.1899 201.83 40.2016C200.746 40.2468 200.236 41.0388 200.3 42.5779C200.362 44.0714 200.935 44.7956 202.019 44.7504C202.42 44.7338 202.788 44.6659 203.126 44.547C203.463 44.4235 203.797 44.2408 204.129 43.9989L204.203 45.7816C203.875 46.0096 203.54 46.1718 203.197 46.2682C202.859 46.3643 202.428 46.4233 201.905 46.4451ZM204.586 38.5475L206.868 38.4525L208.488 42.6886C208.626 43.0568 208.729 43.495 208.795 44.0031L208.836 44.0014C208.867 43.5303 208.946 43.0845 209.075 42.6641L210.31 38.3092L212.543 38.2162L209.671 46.9634C209.408 47.7725 209.01 48.3866 208.475 48.8057C207.945 49.2246 207.314 49.4493 206.581 49.4798C206.221 49.4948 205.867 49.4708 205.517 49.4078L205.449 47.7549C205.701 47.8037 205.976 47.8219 206.272 47.8096C206.641 47.7942 206.957 47.667 207.221 47.428C207.489 47.1933 207.691 46.8451 207.827 46.3833L207.934 46.0025L204.586 38.5475ZM213.306 41.2496C213.233 39.4966 213.51 38.1532 214.137 37.2194C214.768 36.2808 215.787 35.6614 217.193 35.3611C217.686 35.254 218.182 35.1626 218.68 35.0871C219.183 35.0069 219.709 34.9189 220.256 34.8231L220.571 36.6368C219.42 36.817 218.542 36.9607 217.935 37.0681C217.333 37.1753 216.89 37.2849 216.607 37.397C216.325 37.5046 216.094 37.6533 215.914 37.8432C215.74 38.0329 215.609 38.2802 215.521 38.5848C215.433 38.885 215.384 39.2839 215.373 39.7815L215.475 39.7772C215.701 39.3938 216.008 39.0937 216.395 38.8769C216.783 38.66 217.205 38.5421 217.66 38.5232C218.603 38.4839 219.348 38.7425 219.895 39.299C220.443 39.8509 220.739 40.6642 220.784 41.7388C220.835 42.9773 220.543 43.9542 219.907 44.6694C219.275 45.3799 218.376 45.7594 217.211 45.8079C216.045 45.8565 215.117 45.4777 214.427 44.6718C213.741 43.8611 213.367 42.7203 213.306 41.2496ZM217.263 44.1158C218.252 44.0747 218.717 43.3734 218.661 42.0119C218.605 40.6869 218.132 40.043 217.239 40.0801C216.993 40.0903 216.75 40.1575 216.509 40.2816C216.272 40.4054 216.055 40.565 215.858 40.7602C215.665 40.9507 215.525 41.1413 215.437 41.3319C215.476 42.2563 215.653 42.9581 215.97 43.4376C216.286 43.9125 216.717 44.1385 217.263 44.1158ZM222.007 40.8874C221.934 39.1343 222.211 37.7909 222.838 36.8571C223.47 35.9186 224.489 35.2992 225.895 34.9989C226.387 34.8917 226.883 34.8004 227.382 34.7249C227.885 34.6446 228.41 34.5566 228.958 34.4608L229.273 36.2745C228.122 36.4547 227.243 36.5985 226.636 36.7058C226.034 36.813 225.592 36.9227 225.309 37.0348C225.026 37.1423 224.795 37.2911 224.616 37.481C224.441 37.6707 224.31 37.9179 224.223 38.2226C224.135 38.5227 224.085 38.9216 224.074 39.4193L224.176 39.415C224.402 39.0316 224.709 38.7314 225.097 38.5146C225.485 38.2978 225.906 38.1799 226.362 38.1609C227.304 38.1217 228.049 38.3803 228.597 38.9368C229.144 39.4887 229.441 40.3019 229.485 41.3765C229.537 42.615 229.245 43.5919 228.608 44.3071C227.977 45.0176 227.078 45.3971 225.912 45.4457C224.747 45.4942 223.819 45.1155 223.128 44.3095C222.442 43.4988 222.069 42.3581 222.007 40.8874ZM225.965 43.7535C226.953 43.7124 227.419 43.0111 227.362 41.6497C227.307 40.3246 226.833 39.6807 225.941 39.7179C225.695 39.7281 225.451 39.7952 225.21 39.9193C224.973 40.0432 224.757 40.2027 224.559 40.398C224.367 40.5884 224.226 40.779 224.139 40.9697C224.177 41.894 224.355 42.5959 224.671 43.0753C224.987 43.5502 225.419 43.7763 225.965 43.7535ZM232.864 41.1811C232.895 41.937 233.042 42.5033 233.304 42.8801C233.571 43.2567 233.984 43.4334 234.544 43.4101C235.1 43.3869 235.49 43.1791 235.715 42.7866C235.945 42.3893 236.044 41.8105 236.013 41.0501C235.981 40.2942 235.835 39.7324 235.573 39.3647C235.311 38.997 234.9 38.8249 234.34 38.8482C233.785 38.8713 233.392 39.0769 233.162 39.4651C232.932 39.8487 232.832 40.4207 232.864 41.1811ZM238.144 40.9613C238.195 42.2044 237.908 43.1902 237.281 43.9187C236.655 44.6472 235.757 45.0358 234.586 45.0846C233.853 45.1151 233.2 44.9826 232.627 44.6872C232.053 44.3872 231.604 43.943 231.278 43.3545C230.953 42.7659 230.773 42.071 230.74 41.2696C230.688 40.022 230.973 39.0385 231.595 38.3193C232.218 37.6001 233.118 37.2159 234.298 37.1669C235.031 37.1363 235.684 37.2688 236.257 37.5642C236.831 37.8596 237.28 38.2993 237.605 38.8833C237.931 39.4673 238.11 40.16 238.144 40.9613ZM245.956 36.8252L246.021 38.3893L243.521 38.4933L243.774 44.5652L241.691 44.652L241.438 38.5801L238.931 38.6844L238.866 37.1203L245.956 36.8252ZM252.55 44.1998L252.104 43.1785L252.05 43.1807C251.717 43.637 251.368 43.9594 251.002 44.148C250.64 44.3318 250.161 44.4362 249.565 44.461C248.832 44.4915 248.245 44.3061 247.804 43.9048C247.367 43.5034 247.133 42.9156 247.101 42.1415C247.067 41.331 247.324 40.7228 247.873 40.3168C248.426 39.9061 249.273 39.6564 250.415 39.5679L251.738 39.4717L251.724 39.1371C251.692 38.363 251.279 37.9925 250.487 38.0254C249.877 38.0508 249.168 38.2651 248.359 38.6682L247.61 37.29C248.47 36.7935 249.435 36.523 250.505 36.4784C251.529 36.4358 252.324 36.6262 252.889 37.0497C253.454 37.4732 253.755 38.1402 253.793 39.0509L254.005 44.1393L252.55 44.1998ZM251.788 40.6875L250.984 40.7484C250.379 40.7918 249.933 40.9198 249.645 41.1325C249.357 41.3452 249.222 41.6564 249.239 42.0662C249.264 42.6536 249.613 42.9332 250.287 42.9052C250.769 42.8851 251.148 42.7302 251.424 42.4405C251.703 42.1506 251.834 41.7757 251.815 41.3158L251.788 40.6875ZM255.581 46.0099C255.789 44.7378 255.954 43.5564 256.077 42.4657L257.744 42.3963L257.737 42.7319C257.484 43.7732 257.168 44.8491 256.79 45.9596L255.581 46.0099ZM264.305 43.7037L263.958 35.3779C263.896 35.4215 263.606 35.5659 263.087 35.811C262.572 36.0513 262.281 36.182 262.213 36.2031L262.157 34.8371C262.264 34.7825 262.603 34.5973 263.173 34.2816C263.744 33.9614 264.058 33.7795 264.115 33.7361L265.618 33.6735L266.033 43.6317L264.305 43.7037ZM267.501 43.5774L267.399 42.1038L270.412 38.3933C270.786 37.958 271.055 37.5614 271.218 37.2034C271.385 36.8407 271.461 36.4635 271.445 36.0719C271.427 35.6394 271.271 35.3015 270.978 35.0582C270.685 34.8104 270.309 34.6961 269.849 34.7153C269.425 34.7329 269.01 34.83 268.602 35.0066C268.199 35.1785 267.87 35.3883 267.615 35.6361L267.047 34.3051C267.705 33.6756 268.653 33.3351 269.892 33.2835C270.875 33.2426 271.676 33.4579 272.293 33.9293C272.914 34.3961 273.244 35.0802 273.281 35.9818C273.308 36.6193 273.162 37.2342 272.845 37.8267C272.532 38.419 272.095 39.0325 271.533 39.6671L269.378 42.1514L273.415 41.9834L273.348 43.334L267.501 43.5774ZM274.804 43.3144L274.729 41.5045L276.539 41.4291L276.614 43.2391L274.804 43.3144ZM274.564 37.5294L274.488 35.7194L276.298 35.6441L276.373 37.4541L274.564 37.5294ZM280.692 41.4341C280.96 41.6328 281.277 41.7245 281.641 41.7093C282.005 41.6942 282.311 41.5766 282.557 41.3565C282.808 41.1362 282.991 40.8389 283.108 40.4646C283.229 40.0856 283.311 39.6853 283.352 39.264C283.394 38.838 283.404 38.3678 283.382 37.8533C283.28 35.3854 282.595 34.1778 281.33 34.2305C280.073 34.2828 279.486 35.5342 279.57 37.9846C279.592 38.5037 279.641 38.9738 279.718 39.3947C279.795 39.8157 279.909 40.2124 280.062 40.5846C280.214 40.9523 280.424 41.2355 280.692 41.4341ZM283.144 42.7962C282.723 42.9962 282.242 43.1074 281.7 43.13C281.158 43.1525 280.667 43.0818 280.227 42.9176C279.787 42.7489 279.419 42.5134 279.124 42.211C278.828 41.904 278.575 41.5336 278.366 41.0999C278.161 40.666 278.007 40.2049 277.904 39.7165C277.807 39.228 277.746 38.7037 277.723 38.1436C277.699 37.5745 277.718 37.04 277.779 36.5403C277.84 36.036 277.957 35.5591 278.13 35.1094C278.303 34.6552 278.524 34.2652 278.793 33.9392C279.067 33.6131 279.414 33.3501 279.834 33.1501C280.254 32.9456 280.733 32.8322 281.27 32.8098C281.808 32.7874 282.294 32.8607 282.73 33.0296C283.166 33.1939 283.531 33.4295 283.827 33.7365C284.122 34.0389 284.373 34.4094 284.578 34.8478C284.787 35.2816 284.944 35.7449 285.046 36.2378C285.149 36.7307 285.212 37.2617 285.236 37.8309C285.259 38.3909 285.24 38.9185 285.178 39.4137C285.122 39.9087 285.009 40.3832 284.841 40.8372C284.673 41.2866 284.454 41.6743 284.185 42.0003C283.915 42.3262 283.568 42.5915 283.144 42.7962ZM289.544 41.0656C289.812 41.2642 290.128 41.356 290.493 41.3408C290.857 41.3257 291.162 41.208 291.408 40.988C291.659 40.7677 291.843 40.4704 291.96 40.0961C292.081 39.717 292.162 39.3168 292.204 38.8955C292.246 38.4695 292.256 37.9993 292.234 37.4848C292.131 35.0169 291.447 33.8093 290.181 33.862C288.925 33.9143 288.338 35.1657 288.422 37.6161C288.444 38.1352 288.493 38.6052 288.57 39.0262C288.646 39.4472 288.761 39.8439 288.913 40.2161C289.065 40.5838 289.276 40.867 289.544 41.0656ZM291.995 42.4277C291.575 42.6277 291.094 42.7389 290.552 42.7615C290.01 42.784 289.519 42.7132 289.079 42.5491C288.638 42.3804 288.271 42.1449 287.975 41.8425C287.68 41.5355 287.427 41.1651 287.217 40.7314C287.012 40.2975 286.859 39.8364 286.756 39.348C286.658 38.8595 286.598 38.3352 286.574 37.7751C286.551 37.206 286.569 36.6715 286.631 36.1718C286.692 35.6675 286.809 35.1906 286.982 34.7409C287.154 34.2867 287.375 33.8967 287.645 33.5707C287.918 33.2446 288.265 32.9816 288.686 32.7816C289.106 32.5771 289.585 32.4637 290.122 32.4413C290.659 32.4189 291.146 32.4922 291.582 32.6611C292.017 32.8254 292.383 33.061 292.679 33.368C292.974 33.6704 293.224 34.0409 293.43 34.4793C293.639 34.913 293.795 35.3764 293.898 35.8693C294.001 36.3622 294.064 36.8932 294.087 37.4624C294.111 38.0224 294.092 38.55 294.03 39.0452C293.973 39.5402 293.861 40.0147 293.693 40.4687C293.524 40.9181 293.306 41.3058 293.036 41.6318C292.767 41.9577 292.42 42.223 291.995 42.4277Z" fill="#292A2B"/>
<path fill-rule="evenodd" clip-rule="evenodd" d="M53.4276 35.5073L53.4276 35.5073C40.7889 36.0769 30.9948 46.7672 31.5314 59.4074L31.7977 69.8215C31.9248 74.7904 36.0559 78.7155 41.0249 78.5885C45.9938 78.4614 49.9189 74.3303 49.7919 69.3613C49.6648 64.3924 45.5337 60.4673 40.5647 60.5943C38.9793 60.6415 37.436 61.1165 36.0984 61.969L36.03 59.2923L36.03 59.2923C35.5564 49.1364 43.3882 40.5113 53.5427 40.0058C63.7096 39.9916 71.972 48.2051 72.0182 58.372L72.0866 61.0486C70.7072 60.2657 69.1417 59.8702 67.5559 59.9041L67.5559 59.9041C62.587 60.0312 58.6619 64.1623 58.7889 69.1312C58.916 74.1002 63.0471 78.0253 68.0161 77.8982C72.985 77.7711 76.9101 73.64 76.783 68.6711L76.5167 58.257L76.5167 58.2569C76.4065 45.6059 66.0789 35.4302 53.4276 35.5072L53.4276 35.5073ZM40.6764 65.0929C43.1609 65.0294 45.2265 66.9919 45.29 69.4764C45.3535 71.9608 43.391 74.0264 40.9065 74.0899C38.422 74.1535 36.3565 72.1909 36.2929 69.7065C36.2294 67.222 38.192 65.1564 40.6764 65.0929ZM67.8977 73.3997C65.4132 73.4633 63.3477 71.5007 63.2841 69.0162C63.2206 66.5318 65.1831 64.4662 67.6676 64.4027C70.1521 64.3391 72.2176 66.3017 72.2812 68.7862C72.3447 71.2706 70.3822 73.3362 67.8977 73.3997Z" fill="#292A2B"/>
<defs>
<filter id="filter0_b_420_4736" x="-19.3838" y="-19.1046" width="358.921" height="289.806" filterUnits="userSpaceOnUse" color-interpolation-filters="sRGB">
<feFlood flood-opacity="0" result="BackgroundImageFix"/>
<feGaussianBlur in="BackgroundImageFix" stdDeviation="10"/>
<feComposite in2="SourceAlpha" operator="in" result="effect1_backgroundBlur_420_4736"/>
<feBlend mode="normal" in="SourceGraphic" in2="effect1_backgroundBlur_420_4736" result="shape"/>
</filter>
</defs>
</svg>
