<svg width="324" height="255" viewBox="0 0 324 255" fill="none" xmlns="http://www.w3.org/2000/svg">
<g filter="url(#filter0_b_420_4742)">
<rect x="12.458" width="311" height="239" rx="16" transform="rotate(2.98798 12.458 0)" fill="#0D54CA" fill-opacity="0.5"/>
</g>
<path d="M41.468 134.407L42.021 112.013L46.4037 112.117L45.9416 130.831L53.1396 131.001L53.6017 112.287L57.9525 112.39L57.4904 131.104L64.6884 131.274L65.1505 112.56L69.5333 112.663L68.9803 135.057L41.468 134.407ZM72.7922 130.569C72.8752 127.21 75.6004 125.738 79.9614 125.425L84.3553 125.081L84.3758 124.249C84.4184 122.522 83.4567 121.283 81.2174 121.23C79.3939 121.187 77.9665 121.953 77.7959 123.678L73.893 123.586C74.1236 119.43 77.5175 118.102 81.2924 118.191C86.0271 118.303 88.755 120.608 88.6405 125.246L88.3869 135.515L84.388 135.421L84.4631 132.382C83.3232 134.467 81.2114 135.73 78.2682 135.66C74.4933 135.571 72.7227 133.385 72.7922 130.569ZM77.0526 130.446C77.021 131.726 77.8618 132.674 79.7173 132.718C82.4046 132.781 84.2123 130.871 84.2723 128.44L84.2905 127.704L80.4421 127.997C78.3579 128.14 77.0905 128.911 77.0526 130.446ZM108.193 135.983L103.106 135.863L99.4054 130.174L95.4922 135.683L90.5655 135.567L97.0451 127.237L91.3314 118.812L96.45 118.933L99.6779 124.323L103.232 119.093L108.127 119.209L102.071 127.228L108.193 135.983ZM125.942 119.63L132.98 119.796L132.566 136.559L128.471 136.462L128.81 122.739L124.249 136.363L119.098 136.241L115.214 122.417L114.875 136.141L110.748 136.044L111.162 119.281L118.264 119.449L121.785 133.744L125.942 119.63ZM135.868 132.06C135.951 128.701 138.677 127.229 143.038 126.916L147.431 126.572L147.452 125.74C147.495 124.012 146.533 122.773 144.294 122.72C142.47 122.677 141.043 123.444 140.872 125.168L136.969 125.076C137.2 120.92 140.594 119.592 144.369 119.681C149.103 119.793 151.831 122.098 151.717 126.737L151.463 137.006L147.464 136.911L147.539 133.872C146.399 135.958 144.288 137.22 141.344 137.151C137.569 137.061 135.799 134.875 135.868 132.06ZM140.129 131.936C140.097 133.216 140.938 134.164 142.793 134.208C145.481 134.272 147.288 132.362 147.348 129.93L147.367 129.195L143.518 129.488C141.434 129.631 140.167 130.401 140.129 131.936ZM153.908 123.812L153.995 120.293L169.478 120.659L169.391 124.178L163.825 124.046L163.498 137.29L159.211 137.189L159.538 123.945L153.908 123.812ZM179.552 126.722C184.895 126.849 186.532 129.256 186.455 132.359C186.379 135.462 184.625 137.789 179.282 137.663L173.652 137.53L171.7 137.484L172.114 120.721L176.401 120.822L176.257 126.644L179.552 126.722ZM189.005 121.12L193.292 121.221L192.878 137.984L188.591 137.883L189.005 121.12ZM179.075 134.393C181.218 134.444 182.135 133.601 182.169 132.226C182.204 130.818 181.329 129.933 179.186 129.883L176.179 129.811L176.068 134.322L179.075 134.393ZM204.316 138.255L204.73 121.492L209.017 121.593L208.857 128.055L215.927 128.222L216.087 121.76L220.374 121.861L219.96 138.624L215.673 138.523L215.84 131.741L208.77 131.574L208.603 138.356L204.316 138.255ZM223.25 134.125C223.333 130.766 226.058 129.294 230.419 128.981L234.813 128.636L234.834 127.805C234.876 126.077 233.915 124.838 231.675 124.785C229.852 124.742 228.425 125.508 228.254 127.233L224.351 127.141C224.582 122.985 227.975 121.657 231.75 121.746C236.485 121.858 239.213 124.163 239.098 128.802L238.845 139.07L234.846 138.976L234.921 135.937C233.781 138.022 231.669 139.285 228.726 139.215C224.951 139.126 223.181 136.94 223.25 134.125ZM227.511 134.001C227.479 135.281 228.32 136.229 230.175 136.273C232.863 136.336 234.67 134.426 234.73 131.995L234.748 131.259L230.9 131.553C228.816 131.695 227.549 132.466 227.511 134.001ZM39.1496 153.109L39.2365 149.59L54.7202 149.956L54.6333 153.475L49.0668 153.343L48.7398 166.587L44.453 166.486L44.78 153.242L39.1496 153.109ZM56.784 173.179L57.3559 150.018L61.3548 150.113L61.279 153.184C62.5195 150.908 64.6594 149.807 67.0267 149.863C71.1536 149.96 74.1129 153.263 73.9763 158.797C73.8396 164.332 70.7207 167.491 66.6258 167.394C64.4184 167.342 62.4603 166.271 61.2944 164.227L61.0708 173.28L56.784 173.179ZM61.2438 158.496C61.164 161.727 62.7411 163.973 65.3643 164.035C67.9876 164.097 69.6737 161.929 69.7534 158.698C69.8332 155.466 68.2562 153.221 65.6329 153.159C63.0097 153.097 61.3236 155.265 61.2438 158.496ZM76.0637 162.656C76.1466 159.297 78.8718 157.825 83.2328 157.512L87.6267 157.167L87.6472 156.336C87.6899 154.608 86.7282 153.369 84.4888 153.316C82.6653 153.273 81.2379 154.04 81.0673 155.764L77.1644 155.672C77.3951 151.516 80.7889 150.188 84.5638 150.277C89.2985 150.389 92.0264 152.694 91.9119 157.333L91.6583 167.601L87.6594 167.507L87.7345 164.468C86.5946 166.554 84.4828 167.816 81.5397 167.746C77.7647 167.657 75.9941 165.471 76.0637 162.656ZM80.324 162.532C80.2924 163.812 81.1333 164.76 82.9887 164.804C85.676 164.867 87.4837 162.958 87.5437 160.526L87.5619 159.79L83.7135 160.084C81.6293 160.226 80.3619 160.997 80.324 162.532ZM105.819 159.23C108.595 159.583 110.905 160.694 110.838 163.413C110.782 165.653 109.251 168.017 104.069 167.895L95.4313 167.691L95.8452 150.928L104.035 151.121C108.61 151.229 110.516 153.099 110.457 155.498C110.411 157.354 109.19 158.829 105.819 159.23ZM100.054 154.196L99.9629 157.875L103.578 157.96C105.497 158.006 106.126 157.188 106.151 156.165C106.176 155.141 105.556 154.326 103.477 154.277L100.054 154.196ZM103.795 164.719C105.843 164.768 106.569 163.889 106.596 162.769C106.626 161.553 105.813 160.766 103.734 160.717L99.895 160.626L99.7963 164.625L103.795 164.719ZM113.146 159.723C113.294 153.741 116.945 151.042 122 151.162C127.278 151.286 130.118 154.266 129.954 160.888L129.942 161.368L117.434 161.072C117.678 164.151 119.403 165.6 121.866 165.658C123.721 165.702 124.893 164.93 125.567 163.569L129.655 163.922C128.715 167.005 125.95 168.796 121.791 168.698C116.576 168.574 112.997 165.769 113.146 159.723ZM117.501 158.353L125.787 158.549C125.692 155.89 124.292 154.257 121.925 154.201C119.653 154.147 117.957 155.451 117.501 158.353Z" fill="#323232"/>
<path d="M78.9514 35.4325C74.394 30.9073 68.2056 28.4092 61.7839 28.5025C49.3574 28.4715 39.2587 38.5199 39.2276 50.9463C39.1965 63.3727 49.2449 73.4715 61.6714 73.5025C64.3161 73.5475 66.6568 71.7989 67.3639 69.25C67.8087 67.4332 67.3289 65.5138 66.0814 64.12C65.6713 63.6533 65.7172 62.9425 66.1839 62.5323C66.386 62.3548 66.6449 62.2555 66.9139 62.2525L70.6264 62.2525C77.8746 62.2864 83.9207 56.7212 84.4864 49.495C84.6555 44.2455 82.6533 39.1584 78.9514 35.4325ZM70.7164 57.7525L67.0039 57.7525C63.9097 57.735 61.3873 60.2291 61.3697 63.3232C61.3619 64.7123 61.8703 66.0547 62.7964 67.09C63.0832 67.3794 63.187 67.8034 63.0664 68.1925C62.9539 68.665 62.4364 68.9575 61.7389 69.0025C51.7985 68.8751 43.8436 60.7136 43.971 50.7733C43.9807 50.0143 44.0385 49.2567 44.1438 48.505C45.4686 39.7247 52.9284 33.1772 61.8063 33.0025L61.9864 33.0025C67.1267 32.9352 72.0762 34.9475 75.7114 38.5825C78.5488 41.4218 80.0946 45.3024 79.9864 49.315C79.5039 54.0819 75.5074 57.7194 70.7164 57.7525Z" fill="#292A2B"/>
<path d="M64.373 36.2385C65.691 37.5565 65.691 39.6935 64.373 41.0115C63.0549 42.3295 60.918 42.3295 59.6 41.0115C58.282 39.6935 58.282 37.5565 59.6 36.2385C60.918 34.9205 63.0549 34.9205 64.373 36.2385Z" fill="#292A2B"/>
<path d="M69.2989 40.2031C67.6849 41.1355 67.1323 43.1997 68.0646 44.8137C68.997 46.4278 71.0613 46.9804 72.6753 46.048C74.288 45.1164 74.8412 43.0544 73.9114 41.4406C72.9808 39.8256 70.9172 39.2707 69.3021 40.2013C69.301 40.2019 69.3 40.2025 69.2989 40.2031Z" fill="#292A2B"/>
<path d="M54.6739 40.2013C53.0588 39.2707 50.9952 39.8256 50.0646 41.4406C49.134 43.0557 49.6889 45.1193 51.304 46.0499C52.9178 46.9797 54.9797 46.4265 55.9114 44.8138C56.8437 43.1997 56.2911 41.1355 54.6771 40.2031C54.676 40.2025 54.675 40.2019 54.6739 40.2013Z" fill="#292A2B"/>
<path d="M48.8464 49.3371C47.3016 50.3801 46.8948 52.478 47.9379 54.0228C48.981 55.5676 51.0788 55.9743 52.6236 54.9312C54.1684 53.8882 54.5751 51.7903 53.5321 50.2455C53.5302 50.2427 53.5283 50.2399 53.5264 50.2371C52.4959 48.6988 50.4135 48.2871 48.8752 49.3175C48.8656 49.324 48.8559 49.3305 48.8464 49.3371Z" fill="#292A2B"/>
<path fill-rule="evenodd" clip-rule="evenodd" d="M261.031 85.0333C260.431 84.5399 259.53 84.608 259.014 85.2181L253.801 91.3855L249.136 88.8937L248.973 88.819C248.364 88.585 247.662 88.789 247.277 89.3341L241.272 97.8356L241.183 97.9787C240.837 98.6131 241.013 99.4202 241.618 99.8473L241.761 99.9365C242.396 100.283 243.203 100.106 243.63 99.5011L248.899 92.0401L253.47 94.4816L253.637 94.5577C254.203 94.7733 254.853 94.6128 255.252 94.1403L260.176 88.3131L264.684 93.07L264.817 93.1937C265.371 93.6491 266.191 93.6312 266.725 93.1251C267.303 92.5768 267.328 91.6632 266.78 91.0845L261.164 85.1571L261.031 85.0333ZM265.511 106.501C266.231 106.437 266.804 105.842 266.824 105.102C266.846 104.305 266.217 103.642 265.42 103.62L242.334 102.997L242.165 103.002C241.446 103.066 240.872 103.661 240.852 104.401C240.831 105.198 241.459 105.861 242.256 105.883L265.342 106.506L265.511 106.501Z" fill="#171717"/>
<defs>
<filter id="filter0_b_420_4742" x="-19.1885" y="-19.1881" width="361.412" height="293.263" filterUnits="userSpaceOnUse" color-interpolation-filters="sRGB">
<feFlood flood-opacity="0" result="BackgroundImageFix"/>
<feGaussianBlur in="BackgroundImageFix" stdDeviation="10"/>
<feComposite in2="SourceAlpha" operator="in" result="effect1_backgroundBlur_420_4742"/>
<feBlend mode="normal" in="SourceGraphic" in2="effect1_backgroundBlur_420_4742" result="shape"/>
</filter>
</defs>
</svg>
