<svg width="319" height="240" viewBox="0 0 319 240" fill="none" xmlns="http://www.w3.org/2000/svg">
<g filter="url(#filter0_b_84_2736)">
<rect x="0.55835" y="0.179565" width="311" height="239" rx="16" fill="#C5B577" fill-opacity="0.7"/>
</g>
<path d="M54.7487 112.135L47.8631 130.299L44.8238 130.362L37.1205 112.503L37.4974 130.515L34.554 130.577L34.0908 108.438L38.6338 108.343L46.3444 126.553L53.2866 108.036L57.7336 107.943L58.1968 130.082L55.1255 130.147L54.7487 112.135ZM67.5817 135.487L64.6063 135.549L66.754 129.583L59.4921 112.931L62.8514 112.861L68.2367 125.487L72.8332 112.652L76.0005 112.586L67.5817 135.487ZM89.1438 124.378C89.21 127.545 86.9821 129.672 83.1429 129.752C78.6319 129.847 76.8814 127.259 76.8198 124.316L79.8271 124.253C79.9266 125.947 80.7879 127.337 83.0594 127.29C85.0429 127.248 86.012 126.14 85.9758 124.412C85.9417 122.78 84.8672 121.907 82.7876 121.95L81.06 121.986L81.0091 119.555L82.7367 119.519C84.4644 119.483 85.3721 118.503 85.34 116.968C85.3085 115.464 84.298 114.589 82.6023 114.624C80.8107 114.662 79.937 115.736 79.9092 117.465L76.9658 117.527C76.9022 114.488 78.809 112.303 82.6161 112.224C86.2953 112.147 88.4144 113.991 88.4739 116.838C88.5094 118.534 87.6724 119.832 86.4074 120.562C87.9551 121.106 89.1016 122.362 89.1438 124.378ZM91.7252 129.381L91.3671 112.265L94.4065 112.201L94.535 118.344L96.4866 118.303C100.518 118.219 103.086 120.117 103.159 123.604C103.233 127.156 100.779 129.191 96.7481 129.276L91.7252 129.381ZM108.004 111.917L108.362 129.033L105.322 129.096L104.964 111.98L108.004 111.917ZM96.5755 121.022L94.5919 121.063L94.7077 126.598L96.6913 126.556C98.9308 126.51 100.029 125.462 99.9909 123.639C99.9561 121.975 98.783 120.975 96.5755 121.022ZM124.102 111.58L117.262 119.693L124.716 128.691L120.973 128.769L114.342 120.874L114.51 128.904L111.471 128.968L111.113 111.851L114.152 111.788L114.303 119.018L120.423 111.657L124.102 111.58ZM125.43 123.203C125.362 119.939 127.68 117.522 131.103 117.451C132.83 117.414 134.091 117.996 134.678 118.528L134.648 117.088C134.602 114.881 133.552 113.655 131.536 113.697C129.457 113.74 128.748 115.067 128.746 116.476L125.899 116.535C125.868 113.527 127.678 111.313 131.517 111.233C135.836 111.142 137.584 113.602 137.663 117.377L137.894 128.415L135.206 128.471L135.178 127.127C134.398 128.072 133.164 128.77 131.34 128.808C128.077 128.876 125.504 126.722 125.43 123.203ZM128.373 123.141C128.411 124.965 129.753 126.345 131.64 126.305C133.496 126.266 134.874 124.829 134.836 123.006C134.797 121.15 133.361 119.836 131.474 119.875C129.554 119.916 128.335 121.317 128.373 123.141ZM141.873 121.29L141.95 111.206L152.732 110.981L153.09 128.097L150.018 128.161L149.719 113.828L144.824 113.931L144.724 121.391C144.663 126.161 143.911 128.449 139.72 128.537L139.56 128.54L139.502 125.757L139.694 125.753C141.421 125.717 141.817 124.748 141.873 121.29ZM156.18 128.032L155.822 110.916L158.861 110.853L158.99 116.995L160.941 116.954C164.972 116.87 167.541 118.769 167.614 122.256C167.688 125.807 165.234 127.843 161.203 127.927L156.18 128.032ZM161.03 119.673L159.047 119.715L159.162 125.249L161.146 125.208C163.385 125.161 164.484 124.114 164.446 122.29C164.411 120.627 163.238 119.627 161.03 119.673ZM172.702 110.563L172.843 117.313L178.858 117.188L178.717 110.437L181.756 110.374L182.114 127.49L179.075 127.553L178.916 119.971L172.901 120.097L173.06 127.679L170.021 127.743L169.663 110.627L172.702 110.563ZM185.236 127.424L184.878 110.308L187.917 110.245L188.046 116.387L189.997 116.346C194.028 116.262 196.597 118.161 196.67 121.648C196.744 125.199 194.29 127.235 190.259 127.319L185.236 127.424ZM201.514 109.96L201.872 127.076L198.833 127.14L198.475 110.024L201.514 109.96ZM190.086 119.065L188.103 119.107L188.218 124.641L190.202 124.6C192.442 124.553 193.54 123.506 193.502 121.682C193.467 120.019 192.294 119.019 190.086 119.065ZM210.805 108.582C207.478 108.651 206.37 106.146 206.301 104.419L208.669 104.369C208.72 105.264 209.192 106.439 210.76 106.406C212.296 106.374 212.751 105.18 212.764 104.284L215.068 104.235C215.104 105.995 214.069 108.513 210.805 108.582ZM207.663 109.832L207.915 121.861L213.998 109.699L217.037 109.635L217.395 126.752L214.356 126.815L214.104 114.786L208.021 126.948L204.982 127.011L204.624 109.895L207.663 109.832ZM35.0634 162.573L34.7053 145.457L40.1761 145.343C43.8233 145.266 46.0003 146.821 46.0612 149.732C46.098 151.492 45.069 152.794 43.7387 153.462C45.4137 153.971 46.7529 155.255 46.7984 157.431C46.8626 160.502 44.5333 162.375 40.7581 162.454L35.0634 162.573ZM39.9077 147.813L37.7962 147.857L37.8946 152.56L40.0061 152.516C41.9257 152.476 42.9314 151.59 42.8992 150.055C42.8685 148.583 41.8593 147.772 39.9077 147.813ZM40.3429 154.845L37.9434 154.895L38.0512 160.046L40.4507 159.996C42.5942 159.951 43.6605 158.905 43.6284 157.369C43.5956 155.801 42.5184 154.8 40.3429 154.845ZM65.0501 154.296L51.517 154.579C51.8086 157.806 53.9296 159.746 57.1609 159.678C59.8803 159.622 61.3872 158.214 62.4328 156.175L64.7937 157.342C63.7289 159.989 61.2489 162.314 57.2178 162.398C52.0669 162.506 48.4754 159.124 48.3636 153.781C48.2552 148.598 51.6328 144.815 56.5277 144.712C61.5506 144.607 64.9135 147.77 65.0853 152.919C65.092 153.239 65.1033 153.783 65.0501 154.296ZM56.5506 147.337C53.7672 147.395 51.8851 149.227 51.5615 152.114L61.8952 151.898C61.6443 149.086 59.526 147.274 56.5506 147.337ZM75.5812 152.22L75.4219 144.605L78.4612 144.542L78.8193 161.658L75.78 161.721L75.6387 154.971C75.6387 154.971 74.715 155.182 73.0833 155.216C68.9882 155.302 67.0611 153.454 66.9721 149.199L66.8797 144.784L69.9191 144.72L70.0128 149.199C70.0583 151.375 70.9142 152.509 73.2817 152.46C74.7854 152.428 75.5812 152.22 75.5812 152.22ZM97.6679 153.614L84.1349 153.897C84.4264 157.124 86.5475 159.064 89.7788 158.996C92.4982 158.939 94.0051 157.531 95.0507 155.493L97.4116 156.66C96.3467 159.307 93.8668 161.631 89.8357 161.715C84.6848 161.823 81.0933 158.442 80.9815 153.099C80.8731 147.916 84.2507 144.132 89.1456 144.03C94.1685 143.925 97.5314 147.087 97.7031 152.237C97.7098 152.557 97.7212 153.101 97.6679 153.614ZM89.1685 146.654C86.3851 146.712 84.503 148.544 84.1793 151.432L94.5131 151.215C94.2622 148.404 92.1438 146.592 89.1685 146.654ZM103.107 159.037L103.268 166.748L100.229 166.811L99.7536 144.096L102.665 144.035L102.716 146.499C103.712 145.134 105.666 143.684 108.674 143.621C113.76 143.515 117.355 147.025 117.464 152.271C117.569 157.262 114.259 161.204 108.916 161.316C105.94 161.379 103.927 159.98 103.107 159.037ZM102.844 152.609C102.919 156.193 105.34 158.67 108.763 158.599C112.218 158.527 114.469 155.951 114.394 152.368C114.319 148.817 111.93 146.274 108.507 146.346C105.051 146.418 102.77 149.058 102.844 152.609Z" fill="#323232"/>
<path d="M200.979 42.0055C198.6 42.0113 197.407 40.7085 197.401 38.0972C197.398 36.7984 197.719 35.8064 198.364 35.1212C199.01 34.4315 199.937 34.0852 201.144 34.0823C202.028 34.0801 202.822 34.2514 203.524 34.596L202.913 36.2108C202.585 36.0794 202.279 35.9731 201.996 35.8917C201.713 35.8058 201.431 35.7632 201.148 35.7639C200.064 35.7665 199.523 36.538 199.527 38.0784C199.531 39.5732 200.075 40.3192 201.159 40.3166C201.56 40.3156 201.932 40.2623 202.273 40.1567C202.615 40.0465 202.956 39.877 203.297 39.6483L203.302 41.4325C202.965 41.6475 202.624 41.7965 202.277 41.8793C201.936 41.9622 201.503 42.0043 200.979 42.0055ZM203.968 34.219L206.251 34.2134L207.704 38.5097C207.828 38.8831 207.913 39.325 207.96 39.8353L208.001 39.8352C208.05 39.3657 208.147 38.9234 208.292 38.5083L209.696 34.2051L211.932 34.1997L208.719 42.8276C208.425 43.6258 208.002 44.2239 207.452 44.6217C206.906 45.0195 206.266 45.2193 205.533 45.2211C205.173 45.2219 204.819 45.1841 204.473 45.1074L204.469 43.4531C204.719 43.5118 204.993 43.5407 205.289 43.54C205.658 43.5391 205.979 43.4244 206.252 43.1959C206.53 42.9719 206.745 42.6319 206.899 42.1758L207.021 41.7995L203.968 34.219ZM212.575 37.2606C212.571 35.5061 212.9 34.1745 213.563 33.266C214.231 32.3529 215.273 31.7739 216.69 31.5289C217.186 31.4411 217.685 31.3693 218.186 31.3134C218.692 31.2529 219.221 31.1856 219.772 31.1113L220.016 32.9359C218.858 33.0709 217.974 33.1801 217.364 33.2636C216.758 33.3471 216.312 33.4394 216.025 33.5403C215.738 33.6367 215.501 33.7763 215.315 33.959C215.133 34.1418 214.992 34.3837 214.893 34.6847C214.793 34.9811 214.728 35.3778 214.697 35.8746L214.8 35.8744C215.041 35.5001 215.359 35.2122 215.755 35.0107C216.151 34.8092 216.577 34.7079 217.032 34.7068C217.976 34.7045 218.71 34.9922 219.236 35.5697C219.761 36.1426 220.025 36.9668 220.028 38.0424C220.031 39.2819 219.701 40.2466 219.037 40.9364C218.378 41.6216 217.465 41.9656 216.298 41.9684C215.131 41.9712 214.219 41.5564 213.561 40.7241C212.907 39.8871 212.578 38.7326 212.575 37.2606ZM216.417 40.2796C217.406 40.2772 217.899 39.5947 217.896 38.2321C217.892 36.9059 217.444 36.2439 216.551 36.2461C216.305 36.2467 216.059 36.3042 215.813 36.4188C215.572 36.5333 215.349 36.6842 215.144 36.8716C214.944 37.0543 214.796 37.2393 214.701 37.4264C214.703 38.3515 214.853 39.0598 215.151 39.5513C215.448 40.0382 215.87 40.281 216.417 40.2796ZM221.284 37.2395C221.279 35.485 221.609 34.1534 222.272 33.2449C222.94 32.3318 223.982 31.7528 225.399 31.5078C225.895 31.42 226.394 31.3482 226.895 31.2923C227.401 31.2318 227.93 31.1645 228.481 31.0902L228.724 32.9148C227.567 33.0498 226.683 33.159 226.073 33.2425C225.467 33.326 225.021 33.4183 224.734 33.5192C224.447 33.6156 224.21 33.7552 224.024 33.9379C223.842 34.1207 223.701 34.3625 223.602 34.6636C223.502 34.96 223.437 35.3567 223.406 35.8535L223.509 35.8532C223.75 35.479 224.068 35.1911 224.464 34.9896C224.86 34.7881 225.286 34.6868 225.741 34.6857C226.685 34.6834 227.419 34.971 227.945 35.5485C228.47 36.1215 228.734 36.9457 228.737 38.0212C228.74 39.2608 228.409 40.2255 227.746 40.9153C227.087 41.6004 226.174 41.9445 225.007 41.9473C223.84 41.9501 222.928 41.5353 222.27 40.7029C221.616 39.866 221.287 38.7115 221.284 37.2395ZM225.126 40.2585C226.115 40.2561 226.608 39.5736 226.604 38.211C226.601 36.8848 226.153 36.2228 225.26 36.225C225.014 36.2256 224.768 36.2831 224.522 36.3977C224.281 36.5122 224.058 36.6631 223.853 36.8505C223.653 37.0332 223.505 37.2182 223.41 37.4052C223.412 38.3304 223.562 39.0387 223.86 39.5301C224.157 40.0171 224.579 40.2598 225.126 40.2585ZM232.12 37.9584C232.122 38.7149 232.247 39.2865 232.494 39.6733C232.745 40.06 233.151 40.2527 233.712 40.2514C234.268 40.25 234.666 40.0577 234.907 39.6743C235.152 39.2863 235.274 38.7118 235.272 37.9507C235.27 37.1942 235.146 36.6271 234.899 36.2495C234.652 35.8718 234.248 35.6837 233.687 35.685C233.131 35.6864 232.731 35.8765 232.485 36.2553C232.24 36.6296 232.119 37.1973 232.12 37.9584ZM237.405 37.9455C237.408 39.1897 237.082 40.1635 236.427 40.8669C235.773 41.5703 234.86 41.9234 233.689 41.9262C232.955 41.928 232.307 41.7701 231.746 41.4524C231.185 41.1302 230.753 40.6687 230.451 40.0679C230.149 39.467 229.996 38.7656 229.995 37.9635C229.991 36.7148 230.315 35.7433 230.965 35.049C231.615 34.3548 232.53 34.0062 233.711 34.0033C234.444 34.0015 235.092 34.1595 235.653 34.4771C236.214 34.7948 236.646 35.2517 236.948 35.848C237.251 36.4443 237.403 37.1435 237.405 37.9455ZM245.373 34.1186L245.377 35.684L242.875 35.6901L242.89 41.7672L240.805 41.7723L240.79 35.6951L238.281 35.7012L238.277 34.1358L245.373 34.1186ZM251.674 41.7459L251.268 40.7078L251.213 40.708C250.863 41.1509 250.502 41.4594 250.128 41.6335C249.76 41.803 249.277 41.8885 248.68 41.8899C247.946 41.8917 247.367 41.6835 246.942 41.2652C246.522 40.847 246.311 40.2505 246.309 39.4757C246.307 38.6645 246.588 38.0668 247.152 37.6827C247.721 37.2939 248.577 37.0776 249.721 37.0339L251.047 36.9896L251.046 36.6547C251.044 35.8799 250.647 35.4935 249.854 35.4954C249.243 35.4969 248.526 35.6832 247.702 36.0544L247.008 34.6478C247.886 34.1854 248.861 33.9529 249.932 33.9503C250.957 33.9478 251.744 34.1692 252.292 34.6145C252.84 35.0598 253.115 35.7382 253.117 36.6496L253.13 41.7424L251.674 41.7459ZM251.05 38.2064L250.243 38.2357C249.637 38.2554 249.186 38.3659 248.891 38.5671C248.595 38.7684 248.447 39.0741 248.448 39.4842C248.45 40.0721 248.788 40.3652 249.462 40.3636C249.945 40.3624 250.33 40.2225 250.617 39.9438C250.908 39.6651 251.052 39.2956 251.051 38.8353L251.05 38.2064ZM254.631 43.6733C254.888 42.4103 255.1 41.2363 255.266 40.1513L256.933 40.1472L256.914 40.4822C256.62 41.5129 256.263 42.5756 255.841 43.6704L254.631 43.6733ZM263.438 41.7106L263.418 33.3776C263.354 33.4188 263.058 33.5516 262.53 33.7762C262.007 33.9963 261.711 34.1155 261.643 34.1339L261.639 32.7667C261.748 32.7163 262.094 32.5445 262.677 32.2515C263.26 31.9538 263.581 31.7844 263.64 31.7433L265.144 31.7396L265.168 41.7064L263.438 41.7106ZM266.637 41.7097L266.593 40.2332L269.749 36.6435C270.14 36.2233 270.424 35.8375 270.601 35.4862C270.782 35.1303 270.873 34.7563 270.872 34.3644C270.871 33.9315 270.728 33.5877 270.445 33.3332C270.162 33.0741 269.79 32.9452 269.33 32.9463C268.906 32.9473 268.487 33.0281 268.073 33.1886C267.663 33.3445 267.326 33.5413 267.063 33.7789L266.547 32.4266C267.229 31.8234 268.19 31.5203 269.429 31.5173C270.414 31.5149 271.205 31.7614 271.803 32.2567C272.406 32.7474 272.708 33.4439 272.71 34.3463C272.712 34.9843 272.543 35.5931 272.202 36.1727C271.866 36.7523 271.405 37.3482 270.819 37.9603L268.569 40.3583L272.609 40.3485L272.489 41.6955L266.637 41.7097ZM273.945 41.733L273.941 39.9214L275.752 39.9171L275.757 41.7286L273.945 41.733ZM273.931 35.9429L273.927 34.1314L275.738 34.127L275.743 35.9385L273.931 35.9429ZM279.902 40.0847C280.162 40.2937 280.475 40.3978 280.839 40.3969C281.204 40.396 281.514 40.2905 281.768 40.0802C282.028 39.8699 282.223 39.5801 282.354 39.2106C282.49 38.8366 282.587 38.4399 282.645 38.0205C282.703 37.5965 282.732 37.127 282.731 36.612C282.725 34.142 282.088 32.9085 280.821 32.9116C279.563 32.9146 278.928 34.1421 278.916 36.5939C278.917 37.1135 278.948 37.5851 279.008 38.0088C279.069 38.4324 279.168 38.8332 279.305 39.2112C279.443 39.5845 279.642 39.8757 279.902 40.0847ZM282.298 41.5418C281.87 41.7251 281.385 41.8175 280.843 41.8188C280.301 41.8201 279.813 41.7301 279.379 41.5489C278.946 41.3631 278.588 41.1133 278.304 40.7995C278.021 40.4812 277.783 40.1013 277.591 39.6597C277.403 39.2181 277.267 38.7513 277.184 38.2593C277.105 37.7673 277.065 37.241 277.064 36.6805C277.062 36.1108 277.102 35.5775 277.183 35.0806C277.264 34.5791 277.399 34.1071 277.59 33.6645C277.78 33.2175 278.016 32.8363 278.298 32.5212C278.584 32.2061 278.941 31.9568 279.369 31.7735C279.797 31.5856 280.28 31.491 280.818 31.4897C281.356 31.4884 281.839 31.5807 282.268 31.7665C282.697 31.9477 283.053 32.1975 283.336 32.5158C283.619 32.8296 283.855 33.2096 284.043 33.6557C284.235 34.0973 284.373 34.5664 284.456 35.0629C284.54 35.5595 284.582 36.0926 284.583 36.6622C284.585 37.2228 284.545 37.7492 284.464 38.2416C284.388 38.734 284.257 39.2037 284.071 39.6508C283.885 40.0933 283.651 40.4721 283.37 40.7873C283.088 41.1024 282.731 41.3539 282.298 41.5418ZM288.761 40.0633C289.022 40.2723 289.334 40.3763 289.699 40.3754C290.063 40.3746 290.373 40.269 290.628 40.0587C290.887 39.8485 291.082 39.5586 291.213 39.1891C291.349 38.8151 291.446 38.4184 291.505 37.999C291.563 37.575 291.591 37.1055 291.59 36.5906C291.584 34.1205 290.948 32.887 289.681 32.8901C288.423 32.8932 287.788 34.1206 287.775 36.5725C287.777 37.092 287.808 37.5636 287.868 37.9873C287.928 38.411 288.027 38.8118 288.165 39.1897C288.302 39.5631 288.501 39.8542 288.761 40.0633ZM291.158 41.5203C290.73 41.7037 290.245 41.796 289.702 41.7973C289.16 41.7986 288.672 41.7087 288.239 41.5274C287.805 41.3416 287.447 41.0918 287.164 40.7781C286.88 40.4597 286.642 40.0798 286.45 39.6382C286.262 39.1966 286.126 38.7298 286.043 38.2378C285.965 37.7458 285.925 37.2195 285.923 36.659C285.922 36.0893 285.961 35.556 286.042 35.0591C286.123 34.5576 286.259 34.0856 286.449 33.6431C286.639 33.196 286.875 32.8149 287.157 32.4997C287.444 32.1846 287.801 31.9354 288.229 31.752C288.657 31.5641 289.139 31.4695 289.677 31.4682C290.215 31.4669 290.698 31.5592 291.127 31.745C291.556 31.9262 291.912 32.176 292.195 32.4944C292.479 32.8081 292.714 33.1881 292.902 33.6343C293.095 34.0758 293.233 34.5449 293.316 35.0415C293.399 35.538 293.441 36.0711 293.443 36.6408C293.444 37.2013 293.404 37.7278 293.323 38.2202C293.247 38.7125 293.116 39.1823 292.93 39.6293C292.745 40.0718 292.511 40.4507 292.229 40.7658C291.947 41.0809 291.59 41.3324 291.158 41.5203Z" fill="#CC2222"/>
<path fill-rule="evenodd" clip-rule="evenodd" d="M52.4175 41.2475L52.4175 41.2475C39.7662 41.3215 29.5608 51.62 29.6019 64.2715L29.46 74.688V74.688C29.3924 79.6581 33.3665 83.742 38.3366 83.8097C43.3068 83.8774 47.3907 79.9032 47.4584 74.9331C47.526 69.963 43.5518 65.8791 38.5817 65.8114V65.8114C36.9956 65.7964 35.435 66.2106 34.065 67.01L34.1015 64.3328L34.1015 64.3327C34.0261 54.166 42.1898 45.8544 52.3562 45.7471V45.7471C62.516 46.1312 70.4503 54.6621 70.0981 64.8229L70.0617 67.5002V67.5002C68.7139 66.6638 67.1652 66.2073 65.5792 66.179L65.5792 66.179C60.6091 66.1114 56.5252 70.0855 56.4575 75.0556C56.3898 80.0258 60.364 84.1097 65.3341 84.1774C70.3042 84.245 74.3882 80.2708 74.4559 75.3007V75.3007L74.5977 64.8842L74.5977 64.8842C74.9832 52.2385 65.0621 41.666 52.4175 41.2475L52.4175 41.2475ZM38.5171 70.3109V70.3109C41.0022 70.3447 42.9893 72.3867 42.9555 74.8717C42.9216 77.3568 40.8796 79.3439 38.3946 79.31C35.9095 79.2762 33.9224 77.2342 33.9563 74.7492L33.9563 74.7492C33.9901 72.2641 36.0321 70.277 38.5171 70.3109L38.5171 70.3109ZM65.3921 79.6777V79.6777C62.907 79.6438 60.9199 77.6019 60.9538 75.1168C60.9876 72.6318 63.0296 70.6447 65.5146 70.6785C67.9997 70.7124 69.9868 72.7543 69.9529 75.2394V75.2394C69.9191 77.7244 67.8771 79.7115 65.3921 79.6777V79.6777Z" fill="#292A2B"/>
<path fill-rule="evenodd" clip-rule="evenodd" d="M265.486 57.4471C264.861 56.9857 263.964 57.1008 263.481 57.737L258.597 64.1684L253.809 61.9238L253.642 61.8577C253.022 61.6559 252.331 61.8963 251.976 62.4607L246.423 71.2644L246.341 71.412C246.029 72.0636 246.247 72.8604 246.873 73.2553L247.021 73.3369C247.673 73.6494 248.469 73.4306 248.864 72.8045L253.737 65.0782L258.429 67.2776L258.599 67.3449C259.176 67.5307 259.817 67.3364 260.191 66.8436L264.803 60.7671L269.554 65.2819L269.693 65.3985C270.27 65.8244 271.087 65.7636 271.594 65.2303C272.144 64.6526 272.121 63.7389 271.543 63.1897L265.625 57.5638L265.486 57.4471ZM271.081 78.6514C271.797 78.5499 272.338 77.9259 272.32 77.1859C272.3 76.389 271.637 75.7593 270.84 75.7795L247.753 76.3633L247.585 76.3773C246.869 76.4788 246.328 77.1028 246.346 77.8428C246.367 78.6397 247.029 79.2694 247.826 79.2492L270.913 78.6654L271.081 78.6514Z" fill="#171717"/>
<defs>
<filter id="filter0_b_84_2736" x="-19.4395" y="-19.8588" width="351.027" height="279.036" filterUnits="userSpaceOnUse" color-interpolation-filters="sRGB">
<feFlood flood-opacity="0" result="BackgroundImageFix"/>
<feGaussianBlur in="BackgroundImageFix" stdDeviation="10"/>
<feComposite in2="SourceAlpha" operator="in" result="effect1_backgroundBlur_84_2736"/>
<feBlend mode="normal" in="SourceGraphic" in2="effect1_backgroundBlur_84_2736" result="shape"/>
</filter>
</defs>
</svg>



