<svg width="24" height="24" viewBox="0 0 24 24" fill="none" xmlns="http://www.w3.org/2000/svg">
<path d="M14 14C14 13.5789 13.9181 13.2222 13.7544 12.9298C13.6023 12.6257 13.3743 12.3977 13.0702 12.2456C12.7778 12.0819 12.4211 12 12 12C11.6023 12 11.2515 12.0819 10.9474 12.2456C10.6433 12.3977 10.4094 12.6257 10.2456 12.9298C10.0819 13.2222 10 13.5789 10 14V21H7C6.28655 21 5.61988 20.8187 5 20.4561C4.39181 20.0936 3.90643 19.6082 3.54386 19C3.18129 18.3801 3 17.7135 3 17V11.2456C3 10.7076 3.09942 10.1988 3.29825 9.7193C3.50877 9.22807 3.80117 8.79532 4.17544 8.42105L9.17544 3.42105C9.69006 2.89474 10.2865 2.54386 10.9649 2.36842C11.655 2.19298 12.345 2.19298 13.0351 2.36842C13.7251 2.54386 14.3216 2.89474 14.8246 3.42105L19.8246 8.42105C20.1988 8.79532 20.4854 9.22807 20.6842 9.7193C20.8947 10.1988 21 10.7076 21 11.2456V17C21 17.7135 20.8187 18.3801 20.4561 19C20.1053 19.6082 19.6199 20.0936 19 20.4561C18.3918 20.8187 17.7251 21 17 21H14V14ZM15 21H9V19H15V21Z" fill="#333333"/>
</svg>
