<svg width="59" height="62" viewBox="0 0 59 62" fill="none" xmlns="http://www.w3.org/2000/svg">
<ellipse cx="29.3269" cy="30.6194" rx="29.3269" ry="30.6194" fill="#FEB119" fill-opacity="0.27"/>
<ellipse cx="29.3261" cy="30.6193" rx="16.5761" ry="17.351" fill="#FEB119" fill-opacity="0.27"/>
<path d="M31 32C31 31.5789 30.9181 31.2222 30.7544 30.9298C30.6023 30.6257 30.3743 30.3977 30.0702 30.2456C29.7778 30.0819 29.4211 30 29 30C28.6023 30 28.2515 30.0819 27.9474 30.2456C27.6433 30.3977 27.4094 30.6257 27.2456 30.9298C27.0819 31.2222 27 31.5789 27 32V39H24C23.2865 39 22.6199 38.8187 22 38.4561C21.3918 38.0936 20.9064 37.6082 20.5439 37C20.1813 36.3801 20 35.7135 20 35V29.2456C20 28.7076 20.0994 28.1988 20.2982 27.7193C20.5088 27.2281 20.8012 26.7953 21.1754 26.4211L26.1754 21.4211C26.6901 20.8947 27.2865 20.5439 27.9649 20.3684C28.655 20.193 29.345 20.193 30.0351 20.3684C30.7251 20.5439 31.3216 20.8947 31.8246 21.4211L36.8246 26.4211C37.1988 26.7953 37.4854 27.2281 37.6842 27.7193C37.8947 28.1988 38 28.7076 38 29.2456V35C38 35.7135 37.8187 36.3801 37.4561 37C37.1053 37.6082 36.6199 38.0936 36 38.4561C35.3918 38.8187 34.7251 39 34 39H31V32ZM32 39H26V37H32V39Z" fill="#333333"/>
</svg>

