<svg width="48" height="52" viewBox="0 0 48 52" fill="none" xmlns="http://www.w3.org/2000/svg">
<path d="M48 22.7234C48 34.3864 38.4397 43.9956 26.4892 45.2956C25.5806 45.3944 24.6566 45.4452 23.72 45.4452C22.3034 45.4452 20.9154 45.329 19.5662 45.1061C8.29109 43.2434 0 33.9318 0 22.7234C0 10.1736 10.7452 0 24 0C37.2548 0 48 10.1736 48 22.7234Z" fill="#EA3F6D"/>
<path d="M26.4892 45.2956C25.5806 45.3944 24.6566 45.4452 23.72 45.4452C22.3034 45.4452 20.9154 45.329 19.5662 45.1061C21.8478 47.8633 22.5586 49.3652 23.2585 52C23.9001 49.1892 24.562 47.6909 26.4892 45.2956Z" fill="#EA3F6D"/>
</svg>
