<svg width="8" height="12" viewBox="0 0 8 12" fill="none" xmlns="http://www.w3.org/2000/svg">
<path d="M2.10261 8.68959C2.17893 8.52728 2.22982 8.36497 2.25526 8.20267L2.39519 7.34119C2.39519 7.34119 2.40791 7.35368 2.42063 7.36616C2.48423 7.42859 2.92946 7.85308 3.36196 8.26509C3.43829 8.34 3.52733 8.4274 3.60366 8.48983C3.55277 8.7645 3.47645 9.0142 3.36196 9.26391L2.29342 11.4863C2.17893 11.7235 1.93724 11.8733 1.6701 11.8733C1.56834 11.8733 1.47929 11.8483 1.37753 11.8109C1.03406 11.6486 0.894136 11.249 1.04679 10.9244L2.10261 8.68959Z" fill="#080808"/>
<path d="M0.728901 5.38133L1.00876 4.88193C1.44126 4.10784 2.09002 3.4711 2.87871 3.04661C3.32393 2.80939 3.52747 2.74696 3.731 2.74696L4.67233 2.80939C4.95219 2.82187 5.15572 2.94672 5.96985 3.97051C6.21155 4.27015 6.4914 4.53234 6.82214 4.74459L7.4073 5.11914C7.67443 5.29394 7.75076 5.63104 7.57267 5.89322C7.39458 6.15541 7.05112 6.23032 6.78398 6.05553L6.19882 5.68098C5.79176 5.41879 5.42286 5.09417 5.11756 4.71962L4.65961 6.85458L5.55007 7.70357C5.90625 8.05316 6.16066 8.47765 6.27515 8.96458L6.7967 11.0371C6.88575 11.3992 6.65677 11.7613 6.28787 11.8486C6.23699 11.8611 6.17338 11.8736 6.1225 11.8736C5.8172 11.8736 5.53735 11.6614 5.46102 11.3617L4.95219 9.27671C4.88859 9.03949 4.7741 8.83972 4.59601 8.66493C4.59601 8.66493 2.94231 7.07932 2.8151 6.95446C2.4462 6.60488 2.57341 6.20535 2.63701 5.64352C2.66246 5.36885 2.72606 4.9069 2.76422 4.50737C2.47164 4.76956 2.21723 5.0692 2.0137 5.41879L1.73384 5.91819C1.63207 6.10547 1.42854 6.20535 1.23773 6.20535C1.14869 6.20535 1.04692 6.18038 0.970595 6.14293C0.690738 5.99311 0.588972 5.65601 0.728901 5.38133Z" fill="#080808"/>
<path d="M4.24441 2.46484C3.55299 2.39098 3.05349 1.78098 3.12875 1.10236C3.204 0.423748 3.82552 -0.0665 4.51694 0.0073625C5.20835 0.081225 5.70785 0.691228 5.6326 1.36984C5.55734 2.04846 4.93583 2.5387 4.24441 2.46484Z" fill="#080808"/>
</svg>
