<svg width="294" height="517" viewBox="0 0 294 517" fill="none" xmlns="http://www.w3.org/2000/svg">
<path opacity="0.73" d="M347.871 38.9935C333.187 63.2816 296.026 54.7998 293.335 26.5461C290.179 -6.59406 241.822 -6.59406 238.665 26.5461C235.974 54.7998 198.813 63.2816 184.129 38.9935C166.907 10.5048 123.339 31.4861 134.874 62.7138C144.708 89.3371 114.907 113.103 91.1394 97.5907C63.2614 79.3959 33.1113 117.203 57.0534 140.333C77.4652 160.053 60.9268 194.395 32.7827 190.732C-0.228882 186.435 -10.9893 233.579 20.6176 244.031C47.5641 252.941 47.5641 291.059 20.6176 299.969C-10.9893 310.421 -0.228882 357.565 32.7827 353.268C60.9268 349.605 77.4652 383.947 57.0534 403.667C33.1114 426.797 63.2615 464.604 91.1395 446.409C114.907 430.897 144.708 454.663 134.874 481.286C123.339 512.514 166.907 533.495 184.129 505.006C198.813 480.718 235.974 489.2 238.665 517.454C241.822 550.594 290.179 550.594 293.335 517.454C296.026 489.2 333.187 480.718 347.871 505.006C365.093 533.495 408.661 512.514 397.126 481.286C387.292 454.663 417.093 430.897 440.861 446.409C468.739 464.604 498.889 426.797 474.947 403.667C454.535 383.947 471.073 349.605 499.217 353.268C532.229 357.565 542.989 310.421 511.382 299.969C484.436 291.059 484.436 252.941 511.382 244.031C542.989 233.579 532.229 186.435 499.217 190.732C471.073 194.395 454.535 160.053 474.947 140.333C498.889 117.203 468.739 79.3959 440.861 97.5907C417.093 113.103 387.292 89.3371 397.126 62.7138C408.661 31.4861 365.093 10.5048 347.871 38.9935Z" stroke="white" stroke-width="2"/>
</svg>




