<svg width="215" height="57" viewBox="0 0 215 57" fill="none" xmlns="http://www.w3.org/2000/svg">
<path d="M12.664 12.48C16.728 12.704 19.96 14.272 19.96 18.016C19.96 22.08 16.248 24 11.704 24H1.496V1.6H11.48C15.768 1.6 19.288 3.168 19.288 7.232C19.288 10.464 17.08 12.224 12.664 12.48ZM5.976 5.088V10.944H11.096C13.56 10.944 14.808 9.76 14.808 7.968C14.808 6.208 13.56 5.088 11.032 5.088H5.976ZM11.288 20.512C14.168 20.512 15.48 19.328 15.48 17.408C15.48 15.52 14.232 14.272 11.512 14.272H5.976V20.512H11.288ZM30.6923 13.056C36.0363 13.056 37.7323 15.424 37.7323 18.528C37.7323 21.632 36.0363 24 30.6923 24H25.0603H23.1083V7.232H27.3963V13.056H30.6923ZM40.0043 7.232H44.2923V24H40.0043V7.232ZM30.4043 20.736C32.5483 20.736 33.4443 19.872 33.4443 18.496C33.4443 17.088 32.5483 16.224 30.4043 16.224H27.3963V20.736H30.4043ZM57.0973 7.84C61.6093 7.84 64.8413 11.008 64.8413 16.096C64.8413 21.216 61.6093 24.384 56.2333 24.384C51.2733 24.384 47.6253 21.632 47.6253 13.504C47.6253 6.688 49.6093 2.816 54.3133 1.6C55.9453 1.184 57.6413 1.056 59.1773 0.863998C60.8093 0.639999 61.8013 0.48 63.1133 0.0639992V3.392C62.2173 3.904 60.9693 4.096 59.5933 4.288C58.3773 4.448 57.6733 4.48 56.4253 4.672C53.6093 5.024 51.2413 6.272 50.6973 12.448C51.5933 9.6 53.7693 7.84 57.0973 7.84ZM56.2333 21.056C58.9853 21.056 60.6173 19.072 60.6173 16.096C60.6173 13.12 58.9853 11.168 56.2333 11.168C53.5133 11.168 51.8813 13.12 51.8813 16.096C51.8813 19.072 53.5133 21.056 56.2333 21.056ZM67.1833 15.616C67.1833 9.632 70.7673 6.848 75.8233 6.848C81.1033 6.848 84.0153 9.76 84.0153 16.384V16.864H71.5033C71.8233 19.936 73.5833 21.344 76.0473 21.344C77.9033 21.344 79.0553 20.544 79.6953 19.168L83.7913 19.424C82.9272 22.528 80.2073 24.384 76.0473 24.384C70.8313 24.384 67.1833 21.664 67.1833 15.616ZM71.5033 14.144H79.7913C79.6313 11.488 78.1913 9.888 75.8233 9.888C73.5513 9.888 71.8873 11.232 71.5033 14.144ZM87.077 30.4V7.232H91.077V10.304C92.261 8 94.373 6.848 96.741 6.848C100.869 6.848 103.909 10.08 103.909 15.616C103.909 21.152 100.869 24.384 96.773 24.384C94.565 24.384 92.581 23.36 91.365 21.344V30.4H87.077ZM91.173 15.616C91.173 18.848 92.805 21.056 95.429 21.056C98.053 21.056 99.685 18.848 99.685 15.616C99.685 12.384 98.053 10.176 95.429 10.176C92.805 10.176 91.173 12.384 91.173 15.616ZM117.094 7.232H123.462V24H119.334V10.496L113.414 24H107.046V7.232H111.174V20.736L117.094 7.232ZM133.808 15.616C133.808 9.92 137.104 6.848 142.16 6.848C146.288 6.848 149.552 9.024 150.032 13.056L145.936 13.408C145.488 11.264 144.016 10.176 142.16 10.176C139.664 10.176 138.064 12.192 138.064 15.616C138.064 19.04 139.664 21.056 142.256 21.056C144.336 21.056 145.712 19.84 146.128 17.696L150.256 17.952C149.776 22.144 146.544 24.384 142.256 24.384C137.104 24.384 133.808 21.312 133.808 15.616ZM163.347 15.296C166.131 15.584 168.467 16.64 168.467 19.36C168.467 21.6 166.995 24 161.811 24H153.171V7.232H161.363C165.939 7.232 167.891 9.056 167.891 11.456C167.891 13.312 166.707 14.816 163.347 15.296ZM157.459 10.4V14.08H161.075C162.995 14.08 163.603 13.248 163.603 12.224C163.603 11.2 162.963 10.4 160.883 10.4H157.459ZM161.459 20.832C163.507 20.832 164.211 19.936 164.211 18.816C164.211 17.6 163.379 16.832 161.299 16.832H157.459V20.832H161.459ZM170.683 15.616C170.683 10.176 174.043 6.848 179.291 6.848C184.539 6.848 187.899 10.176 187.899 15.616C187.899 21.056 184.539 24.384 179.291 24.384C174.043 24.384 170.683 21.056 170.683 15.616ZM174.939 15.616C174.939 18.816 176.603 21.056 179.291 21.056C182.011 21.056 183.675 18.816 183.675 15.616C183.675 12.416 182.011 10.176 179.291 10.176C176.603 10.176 174.939 12.416 174.939 15.616ZM206.342 6.848C211.494 6.848 214.726 10.048 214.726 15.616C214.726 21.184 211.494 24.384 206.342 24.384C201.734 24.384 198.63 21.792 198.086 17.216H195.334V24H191.046V7.232H195.334V13.696H198.118C198.79 9.312 201.83 6.848 206.342 6.848ZM206.342 21.056C208.902 21.056 210.502 18.976 210.502 15.616C210.502 12.256 208.902 10.176 206.342 10.176C203.782 10.176 202.214 12.256 202.214 15.616C202.214 18.976 203.782 21.056 206.342 21.056ZM0.216 51.424C0.216 48.064 2.904 46.528 7.256 46.112L11.64 45.664V44.832C11.64 43.104 10.648 41.888 8.408 41.888C6.584 41.888 5.176 42.688 5.048 44.416H1.144C1.272 40.256 4.632 38.848 8.408 38.848C13.144 38.848 15.928 41.088 15.928 45.728V56H11.928V52.96C10.84 55.072 8.76 56.384 5.816 56.384C2.04 56.384 0.216 54.24 0.216 51.424ZM4.472 51.2C4.472 52.48 5.336 53.408 7.192 53.408C9.88 53.408 11.64 51.456 11.64 49.024V48.288L7.8 48.672C5.72 48.864 4.472 49.664 4.472 51.2ZM35.958 56H30.678L25.526 49.216H23.99V56H19.702V39.232H23.99V45.888H25.558L30.422 39.232H35.478L28.598 47.2L35.958 56ZM36.765 42.752V39.232H52.253V42.752H46.685V56H42.397V42.752H36.765ZM64.9375 39.232H71.3055V56H67.1775V42.496L61.2575 56H54.8895V39.232H59.0175V52.736L64.9375 39.232ZM85.378 47.296C88.162 47.584 90.498 48.64 90.498 51.36C90.498 53.6 89.026 56 83.842 56H75.202V39.232H83.394C87.97 39.232 89.922 41.056 89.922 43.456C89.922 45.312 88.738 46.816 85.378 47.296ZM79.49 42.4V46.08H83.106C85.026 46.08 85.634 45.248 85.634 44.224C85.634 43.2 84.994 42.4 82.914 42.4H79.49ZM83.49 52.832C85.538 52.832 86.242 51.936 86.242 50.816C86.242 49.6 85.41 48.832 83.33 48.832H79.49V52.832H83.49ZM93.5145 56V39.232H97.8025V45.696H104.875V39.232H109.163V56H104.875V49.216H97.8025V56H93.5145ZM112.277 47.616C112.277 42.176 115.637 38.848 120.885 38.848C126.133 38.848 129.493 42.176 129.493 47.616C129.493 53.056 126.133 56.384 120.885 56.384C115.637 56.384 112.277 53.056 112.277 47.616ZM116.533 47.616C116.533 50.816 118.197 53.056 120.885 53.056C123.605 53.056 125.269 50.816 125.269 47.616C125.269 44.416 123.605 42.176 120.885 42.176C118.197 42.176 116.533 44.416 116.533 47.616ZM131.84 47.616C131.84 41.92 135.136 38.848 140.192 38.848C144.32 38.848 147.583 41.024 148.064 45.056L143.968 45.408C143.52 43.264 142.048 42.176 140.192 42.176C137.696 42.176 136.096 44.192 136.096 47.616C136.096 51.04 137.696 53.056 140.288 53.056C142.368 53.056 143.744 51.84 144.16 49.696L148.288 49.952C147.808 54.144 144.576 56.384 140.288 56.384C135.136 56.384 131.84 53.312 131.84 47.616ZM149.64 42.752V39.232H165.128V42.752H159.56V56H155.272V42.752H149.64ZM175.733 45.056C181.077 45.056 182.773 47.424 182.773 50.528C182.773 53.632 181.077 56 175.733 56H169.717H167.765V39.232H172.053V45.056H175.733ZM175.445 52.736C177.589 52.736 178.485 51.872 178.485 50.496C178.485 49.088 177.589 48.224 175.445 48.224H172.053V52.736H175.445Z" fill="white"/>
</svg>
