<svg width="165" height="88" viewBox="0 0 165 88" fill="none" xmlns="http://www.w3.org/2000/svg">
<path d="M2.112 23V0.599998H11.424C15.36 0.599998 17.856 2.712 17.856 6.072C17.856 8.504 16.672 10.2 14.624 10.808C13.888 11.032 13.376 11.128 12.704 11.16V11.288C13.408 11.288 13.888 11.32 14.688 11.48C17.632 12.088 19.168 13.848 19.168 16.792C19.168 20.664 16.384 23 11.808 23H2.112ZM6.976 9.56C7.168 9.464 7.392 9.432 7.872 9.432H10.24C12 9.432 12.992 8.568 12.992 7C12.992 5.528 12.032 4.728 10.24 4.728H7.872C7.392 4.728 7.168 4.696 6.976 4.568L6.912 4.632C7.008 4.792 7.072 5.176 7.072 5.56V8.568C7.072 8.984 7.008 9.336 6.912 9.496L6.976 9.56ZM6.976 19.032C7.136 19.032 7.36 18.872 7.904 18.872H10.784C12.928 18.872 14.048 17.912 14.048 16.088C14.048 14.392 12.928 13.528 10.752 13.528H7.872C7.392 13.528 7.168 13.496 6.976 13.368L6.912 13.432C7.008 13.592 7.072 13.976 7.072 14.424V18.008C7.072 18.424 7.008 18.808 6.912 18.968L6.976 19.032ZM29.7563 12.248C33.2123 12.248 35.6123 13.912 35.6123 17.624C35.6123 21.304 33.2123 23 29.7563 23H21.7883V8.216H26.6203V11.512C26.6203 11.8 26.5883 12.088 26.4603 12.344L26.4923 12.376C26.7483 12.248 27.0043 12.248 27.3883 12.248H29.7563ZM36.6683 8.216H41.5003V23H36.6683V8.216ZM28.8923 19.288C29.9803 19.288 30.6523 18.712 30.6523 17.624C30.6523 16.536 29.9803 15.928 28.8923 15.928H27.3883C27.0043 15.928 26.7483 15.928 26.4923 15.8L26.4603 15.832C26.5883 16.088 26.6203 16.376 26.6203 16.664V18.552C26.6203 18.84 26.5883 19.128 26.4603 19.384L26.4923 19.416C26.7483 19.288 27.0043 19.288 27.3883 19.288H28.8923ZM52.725 23.48C47.925 23.48 43.925 20.568 43.925 13.304C43.925 8.152 45.365 5.4 48.245 3.8C49.813 2.968 52.821 2.168 53.941 1.752C54.997 1.368 55.189 0.952 55.221 0.439999H60.117C60.117 2.52 59.413 4.184 57.397 4.92C55.893 5.496 52.405 6.104 50.549 6.936C48.181 8.024 47.573 9.816 47.573 12.728H47.669C48.469 9.496 51.093 8.152 53.877 8.152C57.973 8.152 60.885 11.032 60.885 15.608C60.885 20.28 57.717 23.48 52.725 23.48ZM52.501 19.064C54.389 19.064 55.925 17.72 55.925 15.608C55.925 13.496 54.389 12.152 52.501 12.152C50.581 12.152 49.077 13.496 49.077 15.608C49.077 17.72 50.581 19.064 52.501 19.064ZM70.3275 7.768C74.8715 7.768 77.6555 10.552 77.6555 15.544V16.824H68.8875C68.0555 16.824 67.6395 16.792 67.1595 16.44L67.0955 16.536L67.2235 16.888C67.6395 18.584 68.8875 19.512 70.9035 19.512C72.5995 19.512 74.1675 18.872 75.1915 18.2L76.7915 21.88C74.9995 22.936 73.1435 23.48 70.9355 23.48C65.8155 23.48 62.4875 20.536 62.4875 15.576C62.4875 10.712 65.7515 7.768 70.3275 7.768ZM70.1355 11.352C68.4395 11.352 67.2555 12.376 67.0315 14.104L67.0955 14.2C67.2875 13.976 67.8635 13.912 68.4395 13.912H71.6715C72.2155 13.912 72.6955 13.944 72.8875 14.168L72.9515 14.104C72.8555 12.28 71.7675 11.352 70.1355 11.352ZM89.9285 7.736C93.8965 7.736 96.7445 10.776 96.7445 15.64C96.7445 20.44 93.9925 23.48 89.9605 23.48C87.4965 23.48 85.4805 22.232 84.5205 19.64L84.3925 19.672C84.5845 20.824 84.6805 21.624 84.6805 22.552V29.4H79.9445V8.216H84.7125C84.7125 9.4 84.6165 10.552 84.3605 11.544L84.4885 11.576C85.4485 9.368 87.1125 7.736 89.9285 7.736ZM88.1685 12.056C85.9925 12.056 84.5525 13.432 84.5525 15.608C84.5525 17.784 85.9925 19.16 88.1685 19.16C90.3445 19.16 91.7845 17.816 91.7845 15.608C91.7845 13.4 90.3125 12.056 88.1685 12.056ZM99.1633 23.192V8.216H103.995V12.408C103.995 14.072 104.027 14.616 103.707 15.608L103.835 15.64C104.187 15.032 104.667 14.68 105.595 13.912L112.635 8.024H113.883V23H109.083V18.808C109.083 17.144 109.051 16.6 109.371 15.608L109.243 15.576C108.859 16.184 108.411 16.536 107.483 17.304L100.443 23.192H99.1633ZM9.024 55.48C4.16 55.48 0.8 52.248 0.8 47.608C0.8 42.968 4.16 39.736 9.024 39.736C11.008 39.736 12.704 40.184 14.368 41.176L12.416 45.048C11.392 44.408 10.464 44.152 9.248 44.152C7.136 44.152 5.664 45.56 5.664 47.608C5.664 49.624 7.136 51.064 9.248 51.064C10.464 51.064 11.392 50.808 12.416 50.168L14.368 54.04C12.704 55.032 11.008 55.48 9.024 55.48ZM28.35 47.64C29.406 48.024 30.43 48.984 30.43 50.872C30.43 53.976 27.934 55 25.31 55H16.382V40.216H25.438C28.254 40.216 30.046 41.208 30.046 43.768C30.046 45.336 29.502 46.168 28.35 46.712C27.806 46.968 27.102 47.16 25.63 47.192V47.32C27.006 47.32 27.838 47.448 28.35 47.64ZM21.054 43.576C21.182 43.832 21.214 44.12 21.214 44.408V45.24C21.214 45.528 21.182 45.816 21.054 46.072L21.086 46.104C21.342 45.976 21.598 45.976 21.982 45.976H23.774C24.638 45.976 25.182 45.56 25.182 44.792C25.182 44.056 24.638 43.672 23.774 43.672H21.982C21.598 43.672 21.342 43.672 21.086 43.544L21.054 43.576ZM23.998 51.544C24.926 51.544 25.598 51.16 25.598 50.232C25.598 49.272 24.894 48.952 23.998 48.952H21.982C21.598 48.952 21.342 48.952 21.086 48.824L21.054 48.856C21.182 49.112 21.214 49.4 21.214 49.656V50.808C21.214 51.096 21.182 51.384 21.054 51.64L21.086 51.672C21.342 51.544 21.598 51.544 21.982 51.544H23.998ZM40.3388 39.736C45.1068 39.736 48.6268 42.872 48.6268 47.608C48.6268 52.344 45.1068 55.48 40.3388 55.48C35.5388 55.48 32.0188 52.344 32.0188 47.608C32.0188 42.872 35.5388 39.736 40.3388 39.736ZM40.3388 44.152C38.3868 44.152 36.8828 45.496 36.8828 47.608C36.8828 49.72 38.3868 51.064 40.3388 51.064C42.2908 51.064 43.7948 49.72 43.7948 47.608C43.7948 45.496 42.2908 44.152 40.3388 44.152ZM66.5888 39.736C71.3568 39.736 74.8768 42.872 74.8768 47.608C74.8768 52.344 71.3568 55.48 66.5888 55.48C62.4928 55.48 59.3568 53.208 58.4928 49.624H56.6368C56.2528 49.624 55.9968 49.624 55.7408 49.496L55.7088 49.528C55.8368 49.784 55.8688 50.072 55.8688 50.36V55H51.1008V40.216H55.8688V44.856C55.8688 45.144 55.8368 45.432 55.7088 45.688L55.7408 45.72C55.9968 45.592 56.2528 45.592 56.6368 45.592H58.4928C59.3568 42.008 62.4928 39.736 66.5888 39.736ZM66.5888 51.064C68.5408 51.064 70.0448 49.72 70.0448 47.608C70.0448 45.496 68.5408 44.152 66.5888 44.152C64.6368 44.152 63.1328 45.496 63.1328 47.608C63.1328 49.72 64.6368 51.064 66.5888 51.064ZM8.32 71.736C13.408 71.736 15.456 73.432 15.456 77.624V87H10.624C10.624 85.88 10.784 84.952 11.136 84.056L10.976 83.96C9.952 86.296 8.16 87.48 5.792 87.48C2.624 87.48 0.512 85.432 0.512 82.296C0.512 79.224 2.624 77.24 5.856 77.24C8.128 77.24 9.856 78.168 10.912 79.992L11.04 79.928C10.848 79.352 10.784 78.712 10.784 77.56C10.784 76.376 9.6 75.64 7.712 75.64C6.4 75.64 5.344 75.736 3.2 76.12L2.528 72.28C4.448 71.928 6.592 71.736 8.32 71.736ZM7.744 80.088C6.528 80.088 5.696 80.888 5.696 81.976C5.696 83.096 6.528 83.864 7.744 83.864C8.96 83.864 9.824 83.064 9.824 81.976C9.824 80.888 8.96 80.088 7.744 80.088ZM30.3775 87.096C28.5855 87.096 27.7535 86.392 27.3695 85.176L26.6335 82.904C26.2815 81.72 25.9295 81.144 24.9695 81.144H24.2655C23.7855 81.144 23.4015 81.112 23.2735 81.08L23.2415 81.112C23.3375 81.464 23.4015 81.784 23.4015 82.456V87H18.5695V72.216H23.4015V76.184C23.4015 76.824 23.3375 77.112 23.2415 77.464L23.2735 77.496C23.4015 77.464 23.7855 77.432 24.2655 77.432H24.9695C25.8335 77.432 26.2815 76.984 26.6655 75.96L27.5935 73.88C28.1055 72.632 29.0335 72.12 30.6015 72.12H33.1935V75.864H32.9055C31.9455 75.864 31.4975 76.12 31.2095 76.6L30.7295 77.656C30.3455 78.68 29.7375 79.192 27.4335 79.224V79.352C29.7375 79.384 30.3455 80.024 30.7615 81.144L31.2735 82.456C31.6895 83.16 31.9775 83.352 32.6815 83.352H33.0975V87.096H30.3775ZM33.8475 72.216H48.1515V76.408H44.1835C43.7995 76.408 43.5435 76.408 43.2875 76.28L43.2555 76.312C43.3835 76.568 43.4155 76.856 43.4155 77.144V87H38.5835V77.144C38.5835 76.856 38.6155 76.568 38.7435 76.312L38.7115 76.28C38.4555 76.408 38.1995 76.408 37.8155 76.408H33.8475V72.216ZM49.9445 87.192V72.216H54.7765V76.408C54.7765 78.072 54.8085 78.616 54.4885 79.608L54.6165 79.64C54.9685 79.032 55.4485 78.68 56.3765 77.912L63.4165 72.024H64.6645V87H59.8645V82.808C59.8645 81.144 59.8325 80.6 60.1525 79.608L60.0245 79.576C59.6405 80.184 59.1925 80.536 58.2645 81.304L51.2245 87.192H49.9445ZM79.9438 79.64C80.9998 80.024 82.0238 80.984 82.0238 82.872C82.0238 85.976 79.5278 87 76.9038 87H67.9758V72.216H77.0318C79.8478 72.216 81.6398 73.208 81.6398 75.768C81.6398 77.336 81.0958 78.168 79.9438 78.712C79.3998 78.968 78.6958 79.16 77.2238 79.192V79.32C78.5998 79.32 79.4318 79.448 79.9438 79.64ZM72.6478 75.576C72.7758 75.832 72.8078 76.12 72.8078 76.408V77.24C72.8078 77.528 72.7758 77.816 72.6478 78.072L72.6798 78.104C72.9358 77.976 73.1918 77.976 73.5758 77.976H75.3678C76.2318 77.976 76.7758 77.56 76.7758 76.792C76.7758 76.056 76.2318 75.672 75.3678 75.672H73.5758C73.1918 75.672 72.9358 75.672 72.6798 75.544L72.6478 75.576ZM75.5918 83.544C76.5198 83.544 77.1918 83.16 77.1918 82.232C77.1918 81.272 76.4878 80.952 75.5918 80.952H73.5758C73.1918 80.952 72.9358 80.952 72.6798 80.824L72.6478 80.856C72.7758 81.112 72.8078 81.4 72.8078 81.656V82.808C72.8078 83.096 72.7758 83.384 72.6478 83.64L72.6798 83.672C72.9358 83.544 73.1918 83.544 73.5758 83.544H75.5918ZM94.6205 72.216H99.4525V87H94.6205V81.944C94.6205 81.656 94.6525 81.368 94.7805 81.112L94.7485 81.08C94.4925 81.208 94.2365 81.208 93.8525 81.208H90.0445C89.6605 81.208 89.4045 81.208 89.1485 81.08L89.1165 81.112C89.2445 81.368 89.2765 81.656 89.2765 81.944V87H84.4445V72.216H89.2765V76.28C89.2765 76.568 89.2445 76.856 89.1165 77.112L89.1485 77.144C89.4045 77.016 89.6605 77.016 90.0445 77.016H93.8525C94.2365 77.016 94.4925 77.016 94.7485 77.144L94.7805 77.112C94.6525 76.856 94.6205 76.568 94.6205 76.28V72.216ZM110.214 71.736C114.982 71.736 118.502 74.872 118.502 79.608C118.502 84.344 114.982 87.48 110.214 87.48C105.414 87.48 101.894 84.344 101.894 79.608C101.894 74.872 105.414 71.736 110.214 71.736ZM110.214 76.152C108.262 76.152 106.758 77.496 106.758 79.608C106.758 81.72 108.262 83.064 110.214 83.064C112.166 83.064 113.67 81.72 113.67 79.608C113.67 77.496 112.166 76.152 110.214 76.152ZM128.368 87.48C123.504 87.48 120.144 84.248 120.144 79.608C120.144 74.968 123.504 71.736 128.368 71.736C130.352 71.736 132.048 72.184 133.712 73.176L131.76 77.048C130.736 76.408 129.808 76.152 128.592 76.152C126.48 76.152 125.008 77.56 125.008 79.608C125.008 81.624 126.48 83.064 128.592 83.064C129.808 83.064 130.736 82.808 131.76 82.168L133.712 86.04C132.048 87.032 130.352 87.48 128.368 87.48ZM134.254 72.216H148.558V76.408H144.59C144.206 76.408 143.95 76.408 143.694 76.28L143.662 76.312C143.79 76.568 143.822 76.856 143.822 77.144V87H138.99V77.144C138.99 76.856 139.022 76.568 139.15 76.312L139.118 76.28C138.862 76.408 138.606 76.408 138.222 76.408H134.254V72.216ZM158.319 76.248C161.775 76.248 164.175 77.912 164.175 81.624C164.175 85.304 161.775 87 158.319 87H150.351V72.216H155.183V75.512C155.183 75.8 155.151 76.088 155.023 76.344L155.055 76.376C155.311 76.248 155.567 76.248 155.951 76.248H158.319ZM157.455 83.288C158.543 83.288 159.215 82.712 159.215 81.624C159.215 80.536 158.543 79.928 157.455 79.928H155.951C155.567 79.928 155.311 79.928 155.055 79.8L155.023 79.832C155.151 80.088 155.183 80.376 155.183 80.664V82.552C155.183 82.84 155.151 83.128 155.023 83.384L155.055 83.416C155.311 83.288 155.567 83.288 155.951 83.288H157.455Z" fill="#292A2B"/>
</svg>
